<mxfile host="Electron" modified="2023-12-03T04:42:03.055Z" agent="Mozilla/5.0 (Windows NT 10.0; Win64; x64) AppleWebKit/537.36 (KHTML, like Gecko) draw.io/22.1.2 Chrome/114.0.5735.289 Electron/25.9.4 Safari/537.36" etag="1dDUV8Vl8wFWqntDAVw5" version="22.1.2" type="device">
  <diagram name="roundabout" id="0783ab3e-0a74-02c8-0abd-f7b4e66b4bec">
    <mxGraphModel dx="2569" dy="1083" grid="1" gridSize="10" guides="1" tooltips="1" connect="1" arrows="1" fold="1" page="1" pageScale="1" pageWidth="850" pageHeight="1100" background="none" math="0" shadow="0">
      <root>
        <mxCell id="0" />
        <mxCell id="1" parent="0" />
        <mxCell id="R2zl7MKmkN0muqvOy9qm-270" value="" style="endArrow=none;dashed=1;html=1;rounded=0;fontSize=12;startSize=8;endSize=8;curved=1;opacity=20;strokeWidth=3;sketch=1;curveFitting=1;jiggle=2;" edge="1" parent="1">
          <mxGeometry width="50" height="50" relative="1" as="geometry">
            <mxPoint x="2" y="998" as="sourcePoint" />
            <mxPoint x="997" y="2" as="targetPoint" />
          </mxGeometry>
        </mxCell>
        <mxCell id="R2zl7MKmkN0muqvOy9qm-269" value="" style="endArrow=none;dashed=1;html=1;rounded=0;fontSize=12;startSize=8;endSize=8;curved=1;opacity=20;strokeWidth=3;sketch=1;curveFitting=1;jiggle=2;" edge="1" parent="1">
          <mxGeometry width="50" height="50" relative="1" as="geometry">
            <mxPoint x="2" y="13" as="sourcePoint" />
            <mxPoint x="1197" y="1089" as="targetPoint" />
          </mxGeometry>
        </mxCell>
        <mxCell id="R2zl7MKmkN0muqvOy9qm-15" style="edgeStyle=none;curved=1;rounded=0;orthogonalLoop=1;jettySize=auto;html=1;entryX=0.5;entryY=0;entryDx=0;entryDy=0;fontSize=12;startSize=8;endSize=8;" edge="1" parent="1" source="R2zl7MKmkN0muqvOy9qm-13" target="R2zl7MKmkN0muqvOy9qm-1">
          <mxGeometry relative="1" as="geometry" />
        </mxCell>
        <mxCell id="R2zl7MKmkN0muqvOy9qm-19" value="" style="group" vertex="1" connectable="0" parent="1">
          <mxGeometry x="100" y="424.53999999999996" width="70.91" height="21.830000000000013" as="geometry" />
        </mxCell>
        <mxCell id="R2zl7MKmkN0muqvOy9qm-6" value="" style="group" vertex="1" connectable="0" parent="R2zl7MKmkN0muqvOy9qm-19">
          <mxGeometry y="5.460000000000008" width="60" height="16.37" as="geometry" />
        </mxCell>
        <mxCell id="R2zl7MKmkN0muqvOy9qm-1" value="" style="rounded=0;whiteSpace=wrap;html=1;fontSize=16;fillColor=#000000;" vertex="1" parent="R2zl7MKmkN0muqvOy9qm-6">
          <mxGeometry y="5.456666666666667" width="49.09090909090909" height="10.913333333333334" as="geometry" />
        </mxCell>
        <mxCell id="R2zl7MKmkN0muqvOy9qm-5" value="&lt;b&gt;mergeWest&lt;/b&gt;" style="text;html=1;strokeColor=none;fillColor=none;align=center;verticalAlign=middle;whiteSpace=wrap;rounded=0;fontSize=9;" vertex="1" parent="R2zl7MKmkN0muqvOy9qm-19">
          <mxGeometry x="60.00090909090909" width="10.90909090909091" height="5.456666666666667" as="geometry" />
        </mxCell>
        <mxCell id="R2zl7MKmkN0muqvOy9qm-20" value="" style="group" vertex="1" connectable="0" parent="1">
          <mxGeometry x="100" y="480" width="70.91" height="21.830000000000013" as="geometry" />
        </mxCell>
        <mxCell id="R2zl7MKmkN0muqvOy9qm-21" value="" style="group" vertex="1" connectable="0" parent="R2zl7MKmkN0muqvOy9qm-20">
          <mxGeometry y="5.460000000000008" width="60" height="16.37" as="geometry" />
        </mxCell>
        <mxCell id="R2zl7MKmkN0muqvOy9qm-22" value="" style="rounded=0;whiteSpace=wrap;html=1;fontSize=16;fillColor=#000000;" vertex="1" parent="R2zl7MKmkN0muqvOy9qm-21">
          <mxGeometry y="5.456666666666667" width="49.09090909090909" height="10.913333333333334" as="geometry" />
        </mxCell>
        <mxCell id="R2zl7MKmkN0muqvOy9qm-23" value="&lt;b&gt;waitWest&lt;/b&gt;" style="text;html=1;strokeColor=none;fillColor=none;align=center;verticalAlign=middle;whiteSpace=wrap;rounded=0;fontSize=9;" vertex="1" parent="R2zl7MKmkN0muqvOy9qm-20">
          <mxGeometry x="59.00090909090909" y="3" width="10.90909090909091" height="5.456666666666667" as="geometry" />
        </mxCell>
        <mxCell id="R2zl7MKmkN0muqvOy9qm-27" value="" style="group" vertex="1" connectable="0" parent="1">
          <mxGeometry x="107.5" y="340" width="68.75" height="60" as="geometry" />
        </mxCell>
        <mxCell id="R2zl7MKmkN0muqvOy9qm-10" value="" style="group" vertex="1" connectable="0" parent="R2zl7MKmkN0muqvOy9qm-27">
          <mxGeometry y="10" width="52.5" height="50" as="geometry" />
        </mxCell>
        <mxCell id="R2zl7MKmkN0muqvOy9qm-14" value="" style="group" vertex="1" connectable="0" parent="R2zl7MKmkN0muqvOy9qm-10">
          <mxGeometry x="-3.75" width="56.25" height="48.75" as="geometry" />
        </mxCell>
        <object label="" markers="●" placeholders="1" id="R2zl7MKmkN0muqvOy9qm-13">
          <mxCell style="ellipse;whiteSpace=wrap;html=1;aspect=fixed;fontSize=16;direction=south;perimeterSpacing=0;strokeWidth=1;dashed=1;dashPattern=8 8;" vertex="1" parent="R2zl7MKmkN0muqvOy9qm-14">
            <mxGeometry y="6.25" width="42.5" height="42.5" as="geometry" />
          </mxCell>
        </object>
        <object label="" markers="●" placeholders="1" id="R2zl7MKmkN0muqvOy9qm-11">
          <mxCell style="ellipse;whiteSpace=wrap;html=1;aspect=fixed;fontSize=16;direction=south;perimeterSpacing=0;strokeWidth=1;" vertex="1" parent="R2zl7MKmkN0muqvOy9qm-14">
            <mxGeometry x="3.75" y="10" width="35" height="35" as="geometry" />
          </mxCell>
        </object>
        <mxCell id="R2zl7MKmkN0muqvOy9qm-12" value="&lt;b&gt;startWestMerge&lt;/b&gt;" style="text;html=1;strokeColor=none;fillColor=none;align=center;verticalAlign=middle;whiteSpace=wrap;rounded=0;fontSize=9;" vertex="1" parent="R2zl7MKmkN0muqvOy9qm-27">
          <mxGeometry x="48.75" width="20" height="10" as="geometry" />
        </mxCell>
        <mxCell id="R2zl7MKmkN0muqvOy9qm-34" style="edgeStyle=none;curved=1;rounded=0;orthogonalLoop=1;jettySize=auto;html=1;exitX=0.5;exitY=1;exitDx=0;exitDy=0;entryX=0.5;entryY=0;entryDx=0;entryDy=0;fontSize=12;startSize=8;endSize=8;" edge="1" parent="1" source="R2zl7MKmkN0muqvOy9qm-1" target="R2zl7MKmkN0muqvOy9qm-22">
          <mxGeometry relative="1" as="geometry" />
        </mxCell>
        <mxCell id="R2zl7MKmkN0muqvOy9qm-35" value="" style="group" vertex="1" connectable="0" parent="1">
          <mxGeometry x="100" y="520" width="70.91" height="21.830000000000013" as="geometry" />
        </mxCell>
        <mxCell id="R2zl7MKmkN0muqvOy9qm-36" value="" style="group" vertex="1" connectable="0" parent="R2zl7MKmkN0muqvOy9qm-35">
          <mxGeometry y="5.460000000000008" width="60" height="16.37" as="geometry" />
        </mxCell>
        <mxCell id="R2zl7MKmkN0muqvOy9qm-37" value="" style="rounded=0;whiteSpace=wrap;html=1;fontSize=16;fillColor=#000000;" vertex="1" parent="R2zl7MKmkN0muqvOy9qm-36">
          <mxGeometry y="5.456666666666667" width="49.09090909090909" height="10.913333333333334" as="geometry" />
        </mxCell>
        <mxCell id="R2zl7MKmkN0muqvOy9qm-38" value="&lt;b&gt;emptyWest&lt;/b&gt;" style="text;html=1;strokeColor=none;fillColor=none;align=center;verticalAlign=middle;whiteSpace=wrap;rounded=0;fontSize=9;" vertex="1" parent="R2zl7MKmkN0muqvOy9qm-35">
          <mxGeometry x="60.00090909090909" width="10.90909090909091" height="5.456666666666667" as="geometry" />
        </mxCell>
        <mxCell id="R2zl7MKmkN0muqvOy9qm-39" style="edgeStyle=none;curved=1;rounded=0;orthogonalLoop=1;jettySize=auto;html=1;exitX=0.5;exitY=1;exitDx=0;exitDy=0;entryX=0.5;entryY=0;entryDx=0;entryDy=0;fontSize=12;startSize=8;endSize=8;" edge="1" parent="1" source="R2zl7MKmkN0muqvOy9qm-22" target="R2zl7MKmkN0muqvOy9qm-37">
          <mxGeometry relative="1" as="geometry" />
        </mxCell>
        <mxCell id="R2zl7MKmkN0muqvOy9qm-40" value="" style="group" vertex="1" connectable="0" parent="1">
          <mxGeometry x="107" y="570" width="68.75" height="60" as="geometry" />
        </mxCell>
        <mxCell id="R2zl7MKmkN0muqvOy9qm-41" value="" style="group" vertex="1" connectable="0" parent="R2zl7MKmkN0muqvOy9qm-40">
          <mxGeometry y="10" width="52.5" height="50" as="geometry" />
        </mxCell>
        <mxCell id="R2zl7MKmkN0muqvOy9qm-42" value="" style="group" vertex="1" connectable="0" parent="R2zl7MKmkN0muqvOy9qm-41">
          <mxGeometry x="-3.75" width="56.25" height="48.75" as="geometry" />
        </mxCell>
        <object label="" markers="●" placeholders="1" id="R2zl7MKmkN0muqvOy9qm-43">
          <mxCell style="ellipse;whiteSpace=wrap;html=1;aspect=fixed;fontSize=16;direction=south;perimeterSpacing=0;strokeWidth=1;dashed=1;dashPattern=8 8;" vertex="1" parent="R2zl7MKmkN0muqvOy9qm-42">
            <mxGeometry y="6.25" width="42.5" height="42.5" as="geometry" />
          </mxCell>
        </object>
        <object label="" markers="●" placeholders="1" id="R2zl7MKmkN0muqvOy9qm-44">
          <mxCell style="ellipse;whiteSpace=wrap;html=1;aspect=fixed;fontSize=16;direction=south;perimeterSpacing=0;strokeWidth=1;" vertex="1" parent="R2zl7MKmkN0muqvOy9qm-42">
            <mxGeometry x="3.75" y="10" width="35" height="35" as="geometry" />
          </mxCell>
        </object>
        <mxCell id="R2zl7MKmkN0muqvOy9qm-45" value="&lt;b&gt;endWestMerge&lt;/b&gt;" style="text;html=1;strokeColor=none;fillColor=none;align=center;verticalAlign=middle;whiteSpace=wrap;rounded=0;fontSize=9;" vertex="1" parent="R2zl7MKmkN0muqvOy9qm-40">
          <mxGeometry x="48.75" width="20" height="10" as="geometry" />
        </mxCell>
        <mxCell id="R2zl7MKmkN0muqvOy9qm-46" style="edgeStyle=none;curved=1;rounded=0;orthogonalLoop=1;jettySize=auto;html=1;exitX=0.5;exitY=1;exitDx=0;exitDy=0;entryX=0;entryY=0.5;entryDx=0;entryDy=0;fontSize=12;startSize=8;endSize=8;" edge="1" parent="1" source="R2zl7MKmkN0muqvOy9qm-37" target="R2zl7MKmkN0muqvOy9qm-43">
          <mxGeometry relative="1" as="geometry" />
        </mxCell>
        <mxCell id="R2zl7MKmkN0muqvOy9qm-47" value="" style="group" vertex="1" connectable="0" parent="1">
          <mxGeometry x="20" y="403" width="68.75" height="60" as="geometry" />
        </mxCell>
        <mxCell id="R2zl7MKmkN0muqvOy9qm-48" value="" style="group" vertex="1" connectable="0" parent="R2zl7MKmkN0muqvOy9qm-47">
          <mxGeometry y="10" width="52.5" height="50" as="geometry" />
        </mxCell>
        <mxCell id="R2zl7MKmkN0muqvOy9qm-49" value="" style="group" vertex="1" connectable="0" parent="R2zl7MKmkN0muqvOy9qm-48">
          <mxGeometry x="-3.75" width="56.25" height="48.75" as="geometry" />
        </mxCell>
        <object label="" markers="●" placeholders="1" id="R2zl7MKmkN0muqvOy9qm-50">
          <mxCell style="ellipse;whiteSpace=wrap;html=1;aspect=fixed;fontSize=16;direction=south;perimeterSpacing=0;strokeWidth=1;dashed=1;dashPattern=8 8;" vertex="1" parent="R2zl7MKmkN0muqvOy9qm-49">
            <mxGeometry y="6.25" width="42.5" height="42.5" as="geometry" />
          </mxCell>
        </object>
        <object label="" markers="●" placeholders="1" id="R2zl7MKmkN0muqvOy9qm-51">
          <mxCell style="ellipse;whiteSpace=wrap;html=1;aspect=fixed;fontSize=16;direction=south;perimeterSpacing=0;strokeWidth=1;" vertex="1" parent="R2zl7MKmkN0muqvOy9qm-49">
            <mxGeometry x="3.75" y="10" width="35" height="35" as="geometry" />
          </mxCell>
        </object>
        <mxCell id="R2zl7MKmkN0muqvOy9qm-52" value="&lt;b&gt;westInput&lt;/b&gt;" style="text;html=1;strokeColor=none;fillColor=none;align=center;verticalAlign=middle;whiteSpace=wrap;rounded=0;fontSize=9;" vertex="1" parent="R2zl7MKmkN0muqvOy9qm-47">
          <mxGeometry x="32.5" width="20" height="10" as="geometry" />
        </mxCell>
        <mxCell id="R2zl7MKmkN0muqvOy9qm-53" style="edgeStyle=none;curved=1;rounded=0;orthogonalLoop=1;jettySize=auto;html=1;exitX=0.5;exitY=0;exitDx=0;exitDy=0;entryX=0;entryY=0.5;entryDx=0;entryDy=0;fontSize=12;startSize=8;endSize=8;" edge="1" parent="1" source="R2zl7MKmkN0muqvOy9qm-50" target="R2zl7MKmkN0muqvOy9qm-1">
          <mxGeometry relative="1" as="geometry" />
        </mxCell>
        <mxCell id="R2zl7MKmkN0muqvOy9qm-54" style="edgeStyle=orthogonalEdgeStyle;rounded=1;orthogonalLoop=1;jettySize=auto;html=1;exitX=1;exitY=0;exitDx=0;exitDy=0;entryX=0;entryY=0.5;entryDx=0;entryDy=0;fontSize=12;startSize=8;endSize=8;startArrow=classic;startFill=1;" edge="1" parent="1" source="R2zl7MKmkN0muqvOy9qm-50" target="R2zl7MKmkN0muqvOy9qm-22">
          <mxGeometry relative="1" as="geometry" />
        </mxCell>
        <mxCell id="R2zl7MKmkN0muqvOy9qm-55" style="edgeStyle=orthogonalEdgeStyle;rounded=1;orthogonalLoop=1;jettySize=auto;html=1;exitX=1;exitY=0.5;exitDx=0;exitDy=0;entryX=0;entryY=0.5;entryDx=0;entryDy=0;fontSize=12;startSize=8;endSize=3;endArrow=circle;endFill=0;" edge="1" parent="1" source="R2zl7MKmkN0muqvOy9qm-50" target="R2zl7MKmkN0muqvOy9qm-37">
          <mxGeometry relative="1" as="geometry" />
        </mxCell>
        <mxCell id="R2zl7MKmkN0muqvOy9qm-187" style="edgeStyle=orthogonalEdgeStyle;rounded=1;orthogonalLoop=1;jettySize=auto;html=1;exitX=0;exitY=0.5;exitDx=0;exitDy=0;exitPerimeter=0;entryX=0;entryY=0.5;entryDx=0;entryDy=0;fontSize=12;startSize=8;endSize=8;" edge="1" parent="1" source="R2zl7MKmkN0muqvOy9qm-137" target="R2zl7MKmkN0muqvOy9qm-13">
          <mxGeometry relative="1" as="geometry" />
        </mxCell>
        <mxCell id="R2zl7MKmkN0muqvOy9qm-189" style="edgeStyle=orthogonalEdgeStyle;rounded=1;orthogonalLoop=1;jettySize=auto;html=1;exitX=0;exitY=0.5;exitDx=0;exitDy=0;exitPerimeter=0;entryX=0;entryY=0.5;entryDx=0;entryDy=0;fontSize=12;startSize=8;endSize=8;" edge="1" parent="1" source="R2zl7MKmkN0muqvOy9qm-154" target="R2zl7MKmkN0muqvOy9qm-13">
          <mxGeometry relative="1" as="geometry" />
        </mxCell>
        <mxCell id="R2zl7MKmkN0muqvOy9qm-190" style="edgeStyle=orthogonalEdgeStyle;rounded=1;orthogonalLoop=1;jettySize=auto;html=1;exitX=0;exitY=0.5;exitDx=0;exitDy=0;exitPerimeter=0;entryX=0;entryY=0.5;entryDx=0;entryDy=0;fontSize=12;startSize=8;endSize=8;" edge="1" parent="1" source="R2zl7MKmkN0muqvOy9qm-157" target="R2zl7MKmkN0muqvOy9qm-13">
          <mxGeometry relative="1" as="geometry" />
        </mxCell>
        <mxCell id="R2zl7MKmkN0muqvOy9qm-191" style="edgeStyle=orthogonalEdgeStyle;rounded=1;orthogonalLoop=1;jettySize=auto;html=1;exitX=0;exitY=0.5;exitDx=0;exitDy=0;exitPerimeter=0;entryX=0;entryY=0.5;entryDx=0;entryDy=0;fontSize=12;startSize=8;endSize=8;" edge="1" parent="1" source="R2zl7MKmkN0muqvOy9qm-160" target="R2zl7MKmkN0muqvOy9qm-13">
          <mxGeometry relative="1" as="geometry" />
        </mxCell>
        <mxCell id="R2zl7MKmkN0muqvOy9qm-199" value="" style="group;fontSize=16;" vertex="1" connectable="0" parent="1">
          <mxGeometry x="608" y="680" width="55" height="45" as="geometry" />
        </mxCell>
        <mxCell id="R2zl7MKmkN0muqvOy9qm-200" value="&lt;b&gt;southSegment&lt;/b&gt;" style="text;html=1;strokeColor=none;fillColor=none;align=center;verticalAlign=middle;whiteSpace=wrap;rounded=0;fontSize=9;container=0;" vertex="1" parent="R2zl7MKmkN0muqvOy9qm-199">
          <mxGeometry x="45" width="20" height="10" as="geometry" />
        </mxCell>
        <object label="" markers="●" placeholders="1" id="R2zl7MKmkN0muqvOy9qm-201">
          <mxCell style="ellipse;whiteSpace=wrap;html=1;aspect=fixed;fontSize=16;direction=south;points=[[0,0.5,0,0,0],[0.5,0,0,0,0],[0.5,1,0,0,0],[1,0.5,0,0,0]];fillColor=#e1d5e7;strokeColor=#9673a6;" vertex="1" parent="R2zl7MKmkN0muqvOy9qm-199">
            <mxGeometry y="10" width="35" height="35" as="geometry" />
          </mxCell>
        </object>
        <mxCell id="R2zl7MKmkN0muqvOy9qm-202" value="" style="group;fontSize=16;" vertex="1" connectable="0" parent="1">
          <mxGeometry x="220" y="412.96" width="55" height="45" as="geometry" />
        </mxCell>
        <mxCell id="R2zl7MKmkN0muqvOy9qm-203" value="&lt;b&gt;westSegment&lt;/b&gt;" style="text;html=1;strokeColor=none;fillColor=none;align=center;verticalAlign=middle;whiteSpace=wrap;rounded=0;fontSize=9;container=0;" vertex="1" parent="R2zl7MKmkN0muqvOy9qm-202">
          <mxGeometry x="45" width="20" height="10" as="geometry" />
        </mxCell>
        <object label="" markers="●" placeholders="1" id="R2zl7MKmkN0muqvOy9qm-204">
          <mxCell style="ellipse;whiteSpace=wrap;html=1;aspect=fixed;fontSize=16;direction=south;points=[[0,0.5,0,0,0],[0.5,0,0,0,0],[0.5,1,0,0,0],[1,0.5,0,0,0]];fillColor=#f8cecc;strokeColor=#b85450;" vertex="1" parent="R2zl7MKmkN0muqvOy9qm-202">
            <mxGeometry y="10" width="35" height="35" as="geometry" />
          </mxCell>
        </object>
        <mxCell id="R2zl7MKmkN0muqvOy9qm-205" style="edgeStyle=none;curved=1;rounded=0;orthogonalLoop=1;jettySize=auto;html=1;exitX=1;exitY=0.5;exitDx=0;exitDy=0;entryX=0.5;entryY=1;entryDx=0;entryDy=0;entryPerimeter=0;fontSize=12;startSize=8;endSize=8;" edge="1" parent="1" source="R2zl7MKmkN0muqvOy9qm-1" target="R2zl7MKmkN0muqvOy9qm-204">
          <mxGeometry relative="1" as="geometry" />
        </mxCell>
        <mxCell id="R2zl7MKmkN0muqvOy9qm-208" style="edgeStyle=orthogonalEdgeStyle;rounded=1;orthogonalLoop=1;jettySize=auto;html=1;entryX=1;entryY=1;entryDx=0;entryDy=0;fontSize=12;startSize=8;endSize=3;endArrow=circle;endFill=0;" edge="1" parent="1" source="R2zl7MKmkN0muqvOy9qm-204" target="R2zl7MKmkN0muqvOy9qm-1">
          <mxGeometry relative="1" as="geometry">
            <Array as="points">
              <mxPoint x="230" y="470" />
              <mxPoint x="149" y="470" />
            </Array>
          </mxGeometry>
        </mxCell>
        <mxCell id="R2zl7MKmkN0muqvOy9qm-213" value="" style="group;fontSize=16;" vertex="1" connectable="0" parent="1">
          <mxGeometry x="310" y="424.54" width="70.91" height="21.830000000000013" as="geometry" />
        </mxCell>
        <mxCell id="R2zl7MKmkN0muqvOy9qm-214" value="" style="group;points=[[0,0.5,0,0,0],[0.5,0,0,0,0],[0.5,1,0,0,0],[1,0.5,0,0,0]];fontSize=16;" vertex="1" connectable="0" parent="R2zl7MKmkN0muqvOy9qm-213">
          <mxGeometry y="5.460000000000008" width="60" height="16.37" as="geometry" />
        </mxCell>
        <mxCell id="R2zl7MKmkN0muqvOy9qm-215" value="" style="rounded=0;whiteSpace=wrap;html=1;fontSize=16;fillColor=#000000;points=[[0,0.5,0,0,0],[0.5,0,0,0,0],[0.5,1,0,0,0],[1,0.5,0,0,0]];" vertex="1" parent="R2zl7MKmkN0muqvOy9qm-214">
          <mxGeometry y="5.456666666666667" width="49.09090909090909" height="10.913333333333334" as="geometry" />
        </mxCell>
        <mxCell id="R2zl7MKmkN0muqvOy9qm-216" value="&lt;b style=&quot;font-size: 9px;&quot;&gt;driveWest&lt;/b&gt;" style="text;html=1;strokeColor=none;fillColor=none;align=center;verticalAlign=middle;whiteSpace=wrap;rounded=0;fontSize=9;" vertex="1" parent="R2zl7MKmkN0muqvOy9qm-213">
          <mxGeometry x="60.00090909090909" width="10.90909090909091" height="5.456666666666667" as="geometry" />
        </mxCell>
        <mxCell id="R2zl7MKmkN0muqvOy9qm-217" value="" style="group;fontSize=16;" vertex="1" connectable="0" parent="1">
          <mxGeometry x="310" y="479.99999999999994" width="70.91" height="21.830000000000013" as="geometry" />
        </mxCell>
        <mxCell id="R2zl7MKmkN0muqvOy9qm-218" value="" style="group;points=[[0,0.5,0,0,0],[0.5,0,0,0,0],[0.5,1,0,0,0],[1,0.5,0,0,0]];fontSize=16;" vertex="1" connectable="0" parent="R2zl7MKmkN0muqvOy9qm-217">
          <mxGeometry y="5.460000000000008" width="60" height="16.37" as="geometry" />
        </mxCell>
        <mxCell id="R2zl7MKmkN0muqvOy9qm-258" style="edgeStyle=orthogonalEdgeStyle;rounded=1;orthogonalLoop=1;jettySize=auto;html=1;exitX=0;exitY=0.5;exitDx=0;exitDy=0;exitPerimeter=0;fontSize=12;startSize=8;endSize=8;startArrow=classic;startFill=1;" edge="1" parent="R2zl7MKmkN0muqvOy9qm-218" source="R2zl7MKmkN0muqvOy9qm-219">
          <mxGeometry relative="1" as="geometry">
            <mxPoint x="-66.09345794392516" y="-28.28242990654195" as="targetPoint" />
          </mxGeometry>
        </mxCell>
        <mxCell id="R2zl7MKmkN0muqvOy9qm-219" value="" style="rounded=0;whiteSpace=wrap;html=1;fontSize=16;fillColor=#000000;points=[[0,0.5,0,0,0],[0.5,0,0,0,0],[0.5,1,0,0,0],[1,0.5,0,0,0]];" vertex="1" parent="R2zl7MKmkN0muqvOy9qm-218">
          <mxGeometry y="5.456666666666667" width="49.09090909090909" height="10.913333333333334" as="geometry" />
        </mxCell>
        <mxCell id="R2zl7MKmkN0muqvOy9qm-220" value="&lt;b style=&quot;font-size: 9px;&quot;&gt;stallWest&lt;/b&gt;" style="text;html=1;strokeColor=none;fillColor=none;align=center;verticalAlign=middle;whiteSpace=wrap;rounded=0;fontSize=9;" vertex="1" parent="R2zl7MKmkN0muqvOy9qm-217">
          <mxGeometry x="60.00090909090909" width="10.90909090909091" height="5.456666666666667" as="geometry" />
        </mxCell>
        <mxCell id="R2zl7MKmkN0muqvOy9qm-221" value="" style="group;fontSize=16;" vertex="1" connectable="0" parent="1">
          <mxGeometry x="310" y="520" width="70.91" height="21.830000000000013" as="geometry" />
        </mxCell>
        <mxCell id="R2zl7MKmkN0muqvOy9qm-222" value="" style="group;points=[[0,0.5,0,0,0],[0.5,0,0,0,0],[0.5,1,0,0,0],[1,0.5,0,0,0]];fontSize=16;" vertex="1" connectable="0" parent="R2zl7MKmkN0muqvOy9qm-221">
          <mxGeometry y="5.460000000000008" width="60" height="16.37" as="geometry" />
        </mxCell>
        <mxCell id="R2zl7MKmkN0muqvOy9qm-223" value="" style="rounded=0;whiteSpace=wrap;html=1;fontSize=16;fillColor=#000000;points=[[0,0.5,0,0,0],[0.5,0,0,0,0],[0.5,1,0,0,0],[1,0.5,0,0,0]];" vertex="1" parent="R2zl7MKmkN0muqvOy9qm-222">
          <mxGeometry y="5.456666666666667" width="49.09090909090909" height="10.913333333333334" as="geometry" />
        </mxCell>
        <mxCell id="R2zl7MKmkN0muqvOy9qm-224" value="&lt;b style=&quot;font-size: 9px;&quot;&gt;passWest&lt;/b&gt;" style="text;html=1;strokeColor=none;fillColor=none;align=center;verticalAlign=middle;whiteSpace=wrap;rounded=0;fontSize=9;" vertex="1" parent="R2zl7MKmkN0muqvOy9qm-221">
          <mxGeometry x="60.00090909090909" width="10.90909090909091" height="5.456666666666667" as="geometry" />
        </mxCell>
        <mxCell id="R2zl7MKmkN0muqvOy9qm-225" value="" style="group;fontSize=16;" vertex="1" connectable="0" parent="1">
          <mxGeometry x="317.79999999999995" y="340" width="68.75" height="60" as="geometry" />
        </mxCell>
        <mxCell id="R2zl7MKmkN0muqvOy9qm-226" value="" style="group;fontSize=16;" vertex="1" connectable="0" parent="R2zl7MKmkN0muqvOy9qm-225">
          <mxGeometry y="10" width="52.5" height="50" as="geometry" />
        </mxCell>
        <mxCell id="R2zl7MKmkN0muqvOy9qm-227" value="" style="group;fontSize=16;" vertex="1" connectable="0" parent="R2zl7MKmkN0muqvOy9qm-226">
          <mxGeometry x="-3.75" width="56.25" height="48.75" as="geometry" />
        </mxCell>
        <object label="" markers="●" placeholders="1" id="R2zl7MKmkN0muqvOy9qm-228">
          <mxCell style="ellipse;whiteSpace=wrap;html=1;aspect=fixed;fontSize=16;direction=south;perimeterSpacing=0;strokeWidth=1;dashed=1;dashPattern=8 8;points=[[0,0.5,0,0,0],[0.5,0,0,0,0],[0.5,1,0,0,0],[1,0.5,0,0,0]];" vertex="1" parent="R2zl7MKmkN0muqvOy9qm-227">
            <mxGeometry y="6.25" width="42.5" height="42.5" as="geometry" />
          </mxCell>
        </object>
        <object label="" markers="●" placeholders="1" id="R2zl7MKmkN0muqvOy9qm-229">
          <mxCell style="ellipse;whiteSpace=wrap;html=1;aspect=fixed;fontSize=16;direction=south;perimeterSpacing=0;strokeWidth=1;points=[];" vertex="1" parent="R2zl7MKmkN0muqvOy9qm-227">
            <mxGeometry x="3.75" y="10" width="35" height="35" as="geometry" />
          </mxCell>
        </object>
        <mxCell id="R2zl7MKmkN0muqvOy9qm-230" value="&lt;b&gt;startWestDrive&lt;/b&gt;" style="text;html=1;strokeColor=none;fillColor=none;align=center;verticalAlign=middle;whiteSpace=wrap;rounded=0;fontSize=9;" vertex="1" parent="R2zl7MKmkN0muqvOy9qm-225">
          <mxGeometry x="48.75" width="20" height="10" as="geometry" />
        </mxCell>
        <mxCell id="R2zl7MKmkN0muqvOy9qm-231" style="edgeStyle=none;curved=1;rounded=0;orthogonalLoop=1;jettySize=auto;html=1;entryX=0.5;entryY=0;entryDx=0;entryDy=0;entryPerimeter=0;fontSize=12;startSize=8;endSize=8;" edge="1" parent="1" source="R2zl7MKmkN0muqvOy9qm-228" target="R2zl7MKmkN0muqvOy9qm-215">
          <mxGeometry relative="1" as="geometry" />
        </mxCell>
        <mxCell id="R2zl7MKmkN0muqvOy9qm-232" style="edgeStyle=none;curved=1;rounded=0;orthogonalLoop=1;jettySize=auto;html=1;entryX=0;entryY=0.5;entryDx=0;entryDy=0;entryPerimeter=0;fontSize=12;startSize=8;endSize=8;" edge="1" parent="1" source="R2zl7MKmkN0muqvOy9qm-204" target="R2zl7MKmkN0muqvOy9qm-215">
          <mxGeometry relative="1" as="geometry" />
        </mxCell>
        <mxCell id="R2zl7MKmkN0muqvOy9qm-233" style="edgeStyle=none;curved=1;rounded=0;orthogonalLoop=1;jettySize=auto;html=1;entryX=0.5;entryY=0;entryDx=0;entryDy=0;entryPerimeter=0;fontSize=12;startSize=8;endSize=8;" edge="1" parent="1" source="R2zl7MKmkN0muqvOy9qm-215" target="R2zl7MKmkN0muqvOy9qm-219">
          <mxGeometry relative="1" as="geometry" />
        </mxCell>
        <mxCell id="R2zl7MKmkN0muqvOy9qm-234" style="edgeStyle=none;curved=1;rounded=0;orthogonalLoop=1;jettySize=auto;html=1;entryX=0.5;entryY=0;entryDx=0;entryDy=0;entryPerimeter=0;fontSize=12;startSize=8;endSize=8;" edge="1" parent="1" source="R2zl7MKmkN0muqvOy9qm-219" target="R2zl7MKmkN0muqvOy9qm-223">
          <mxGeometry relative="1" as="geometry" />
        </mxCell>
        <mxCell id="R2zl7MKmkN0muqvOy9qm-235" value="" style="group;fontSize=16;" vertex="1" connectable="0" parent="1">
          <mxGeometry x="317" y="570" width="68.75" height="60" as="geometry" />
        </mxCell>
        <mxCell id="R2zl7MKmkN0muqvOy9qm-236" value="" style="group;fontSize=16;" vertex="1" connectable="0" parent="R2zl7MKmkN0muqvOy9qm-235">
          <mxGeometry y="10" width="52.5" height="50" as="geometry" />
        </mxCell>
        <mxCell id="R2zl7MKmkN0muqvOy9qm-237" value="" style="group;fontSize=16;" vertex="1" connectable="0" parent="R2zl7MKmkN0muqvOy9qm-236">
          <mxGeometry x="-3.75" width="56.25" height="48.75" as="geometry" />
        </mxCell>
        <object label="" markers="●" placeholders="1" id="R2zl7MKmkN0muqvOy9qm-238">
          <mxCell style="ellipse;whiteSpace=wrap;html=1;aspect=fixed;fontSize=16;direction=south;perimeterSpacing=0;strokeWidth=1;dashed=1;dashPattern=8 8;points=[[0,0.5,0,0,0],[0.5,0,0,0,0],[0.5,1,0,0,0],[1,0.5,0,0,0]];" vertex="1" parent="R2zl7MKmkN0muqvOy9qm-237">
            <mxGeometry y="6.25" width="42.5" height="42.5" as="geometry" />
          </mxCell>
        </object>
        <object label="" markers="●" placeholders="1" id="R2zl7MKmkN0muqvOy9qm-239">
          <mxCell style="ellipse;whiteSpace=wrap;html=1;aspect=fixed;fontSize=16;direction=south;perimeterSpacing=0;strokeWidth=1;points=[];" vertex="1" parent="R2zl7MKmkN0muqvOy9qm-237">
            <mxGeometry x="3.75" y="10" width="35" height="35" as="geometry" />
          </mxCell>
        </object>
        <mxCell id="R2zl7MKmkN0muqvOy9qm-240" value="&lt;b&gt;endWestDrive&lt;/b&gt;" style="text;html=1;strokeColor=none;fillColor=none;align=center;verticalAlign=middle;whiteSpace=wrap;rounded=0;fontSize=9;" vertex="1" parent="R2zl7MKmkN0muqvOy9qm-235">
          <mxGeometry x="48.75" width="20" height="10" as="geometry" />
        </mxCell>
        <mxCell id="R2zl7MKmkN0muqvOy9qm-241" style="edgeStyle=none;curved=1;rounded=0;orthogonalLoop=1;jettySize=auto;html=1;exitX=0.5;exitY=1;exitDx=0;exitDy=0;exitPerimeter=0;entryX=0;entryY=0.5;entryDx=0;entryDy=0;entryPerimeter=0;fontSize=12;startSize=8;endSize=8;" edge="1" parent="1" source="R2zl7MKmkN0muqvOy9qm-223" target="R2zl7MKmkN0muqvOy9qm-238">
          <mxGeometry relative="1" as="geometry" />
        </mxCell>
        <mxCell id="R2zl7MKmkN0muqvOy9qm-248" style="edgeStyle=orthogonalEdgeStyle;rounded=1;orthogonalLoop=1;jettySize=auto;html=1;exitX=0.98;exitY=0.317;exitDx=0;exitDy=0;exitPerimeter=0;entryX=1;entryY=0.5;entryDx=0;entryDy=0;fontSize=12;startSize=8;endSize=8;startArrow=classic;startFill=1;" edge="1" parent="1" source="R2zl7MKmkN0muqvOy9qm-204" target="R2zl7MKmkN0muqvOy9qm-22">
          <mxGeometry relative="1" as="geometry">
            <Array as="points">
              <mxPoint x="244" y="496" />
            </Array>
          </mxGeometry>
        </mxCell>
        <mxCell id="R2zl7MKmkN0muqvOy9qm-257" style="edgeStyle=orthogonalEdgeStyle;rounded=1;orthogonalLoop=1;jettySize=auto;html=1;exitX=0.95;exitY=0.715;exitDx=0;exitDy=0;exitPerimeter=0;entryX=0;entryY=0.5;entryDx=0;entryDy=0;entryPerimeter=0;fontSize=12;startSize=8;endSize=3;endArrow=circle;endFill=0;" edge="1" parent="1" source="R2zl7MKmkN0muqvOy9qm-204" target="R2zl7MKmkN0muqvOy9qm-223">
          <mxGeometry relative="1" as="geometry">
            <Array as="points">
              <mxPoint x="230" y="470" />
              <mxPoint x="270" y="470" />
              <mxPoint x="270" y="536" />
            </Array>
          </mxGeometry>
        </mxCell>
        <mxCell id="R2zl7MKmkN0muqvOy9qm-264" style="edgeStyle=orthogonalEdgeStyle;rounded=1;orthogonalLoop=1;jettySize=auto;html=1;exitX=0;exitY=0.5;exitDx=0;exitDy=0;exitPerimeter=0;fontSize=12;startSize=8;endSize=3;jumpStyle=line;endArrow=circle;endFill=0;entryX=0.895;entryY=0.982;entryDx=0;entryDy=0;entryPerimeter=0;" edge="1" parent="1" source="R2zl7MKmkN0muqvOy9qm-204" target="R2zl7MKmkN0muqvOy9qm-157">
          <mxGeometry relative="1" as="geometry">
            <mxPoint x="450" y="168" as="targetPoint" />
            <Array as="points">
              <mxPoint x="238" y="252" />
              <mxPoint x="420" y="252" />
              <mxPoint x="420" y="167" />
            </Array>
          </mxGeometry>
        </mxCell>
        <mxCell id="R2zl7MKmkN0muqvOy9qm-268" value="" style="group;perimeterSpacing=0;strokeColor=none;" vertex="1" connectable="0" parent="1">
          <mxGeometry x="210" width="448.75" height="290" as="geometry" />
        </mxCell>
        <mxCell id="R2zl7MKmkN0muqvOy9qm-135" value="" style="group" vertex="1" connectable="0" parent="R2zl7MKmkN0muqvOy9qm-268">
          <mxGeometry x="99.99878787878788" y="111" width="25.82121212121217" height="60.918787878787896" as="geometry" />
        </mxCell>
        <mxCell id="R2zl7MKmkN0muqvOy9qm-137" value="" style="rounded=0;whiteSpace=wrap;html=1;fontSize=16;fillColor=#000000;points=[[0,0.5,0,0,0],[0.5,0,0,0,0],[0.5,1,0,0,0],[1,0.5,0,0,0]];rotation=90;container=0;" vertex="1" parent="R2zl7MKmkN0muqvOy9qm-135">
          <mxGeometry x="-19.088787878787855" y="30.916666666666686" width="49.09090909090909" height="10.913333333333334" as="geometry" />
        </mxCell>
        <mxCell id="R2zl7MKmkN0muqvOy9qm-152" value="" style="group" vertex="1" connectable="0" parent="R2zl7MKmkN0muqvOy9qm-268">
          <mxGeometry x="169.99878787878788" y="111" width="25.82121212121217" height="60.918787878787896" as="geometry" />
        </mxCell>
        <mxCell id="R2zl7MKmkN0muqvOy9qm-154" value="" style="rounded=0;whiteSpace=wrap;html=1;fontSize=16;fillColor=#000000;points=[[0,0.5,0,0,0],[0.5,0,0,0,0],[0.5,1,0,0,0],[1,0.5,0,0,0]];rotation=90;container=0;" vertex="1" parent="R2zl7MKmkN0muqvOy9qm-152">
          <mxGeometry x="-19.088787878787855" y="30.916666666666686" width="49.09090909090909" height="10.913333333333334" as="geometry" />
        </mxCell>
        <mxCell id="R2zl7MKmkN0muqvOy9qm-155" value="" style="group" vertex="1" connectable="0" parent="R2zl7MKmkN0muqvOy9qm-268">
          <mxGeometry x="239.99878787878788" y="111" width="25.82121212121217" height="60.918787878787896" as="geometry" />
        </mxCell>
        <mxCell id="R2zl7MKmkN0muqvOy9qm-157" value="" style="rounded=0;whiteSpace=wrap;html=1;fontSize=16;fillColor=#000000;points=[[0,0.5,0,0,0],[0.5,0,0,0,0],[0.5,1,0,0,0],[1,0.5,0,0,0]];rotation=90;container=0;" vertex="1" parent="R2zl7MKmkN0muqvOy9qm-155">
          <mxGeometry x="-19.088787878787855" y="30.916666666666686" width="49.09090909090909" height="10.913333333333334" as="geometry" />
        </mxCell>
        <mxCell id="R2zl7MKmkN0muqvOy9qm-158" value="" style="group" vertex="1" connectable="0" parent="R2zl7MKmkN0muqvOy9qm-268">
          <mxGeometry x="309.9987878787879" y="111" width="25.82121212121217" height="60.918787878787896" as="geometry" />
        </mxCell>
        <mxCell id="R2zl7MKmkN0muqvOy9qm-160" value="" style="rounded=0;whiteSpace=wrap;html=1;fontSize=16;fillColor=#000000;points=[[0,0.5,0,0,0],[0.5,0,0,0,0],[0.5,1,0,0,0],[1,0.5,0,0,0]];rotation=90;container=0;" vertex="1" parent="R2zl7MKmkN0muqvOy9qm-158">
          <mxGeometry x="-19.088787878787855" y="30.916666666666686" width="49.09090909090909" height="10.913333333333334" as="geometry" />
        </mxCell>
        <mxCell id="R2zl7MKmkN0muqvOy9qm-163" value="" style="group" vertex="1" connectable="0" parent="R2zl7MKmkN0muqvOy9qm-268">
          <mxGeometry x="88" width="68.75" height="60" as="geometry" />
        </mxCell>
        <mxCell id="R2zl7MKmkN0muqvOy9qm-164" value="" style="group" vertex="1" connectable="0" parent="R2zl7MKmkN0muqvOy9qm-163">
          <mxGeometry y="10" width="52.5" height="50" as="geometry" />
        </mxCell>
        <mxCell id="R2zl7MKmkN0muqvOy9qm-165" value="" style="group" vertex="1" connectable="0" parent="R2zl7MKmkN0muqvOy9qm-164">
          <mxGeometry x="-3.75" width="56.25" height="48.75" as="geometry" />
        </mxCell>
        <object label="" markers="●" placeholders="1" id="R2zl7MKmkN0muqvOy9qm-166">
          <mxCell style="ellipse;whiteSpace=wrap;html=1;aspect=fixed;fontSize=16;direction=south;perimeterSpacing=0;strokeWidth=1;dashed=1;dashPattern=8 8;" vertex="1" parent="R2zl7MKmkN0muqvOy9qm-165">
            <mxGeometry y="6.25" width="42.5" height="42.5" as="geometry" />
          </mxCell>
        </object>
        <object label="" markers="●" placeholders="1" id="R2zl7MKmkN0muqvOy9qm-167">
          <mxCell style="ellipse;whiteSpace=wrap;html=1;aspect=fixed;fontSize=16;direction=south;perimeterSpacing=0;strokeWidth=1;" vertex="1" parent="R2zl7MKmkN0muqvOy9qm-165">
            <mxGeometry x="3.75" y="10" width="35" height="35" as="geometry" />
          </mxCell>
        </object>
        <mxCell id="R2zl7MKmkN0muqvOy9qm-168" value="&lt;b&gt;northOutput&lt;/b&gt;" style="text;html=1;strokeColor=none;fillColor=none;align=center;verticalAlign=middle;whiteSpace=wrap;rounded=0;fontSize=9;" vertex="1" parent="R2zl7MKmkN0muqvOy9qm-163">
          <mxGeometry x="48.75" width="20" height="10" as="geometry" />
        </mxCell>
        <mxCell id="R2zl7MKmkN0muqvOy9qm-169" value="" style="group" vertex="1" connectable="0" parent="R2zl7MKmkN0muqvOy9qm-268">
          <mxGeometry y="110" width="68.75" height="60" as="geometry" />
        </mxCell>
        <mxCell id="R2zl7MKmkN0muqvOy9qm-170" value="" style="group" vertex="1" connectable="0" parent="R2zl7MKmkN0muqvOy9qm-169">
          <mxGeometry y="10" width="52.5" height="50" as="geometry" />
        </mxCell>
        <mxCell id="R2zl7MKmkN0muqvOy9qm-171" value="" style="group" vertex="1" connectable="0" parent="R2zl7MKmkN0muqvOy9qm-170">
          <mxGeometry x="-3.75" width="56.25" height="48.75" as="geometry" />
        </mxCell>
        <object label="" markers="●" placeholders="1" id="R2zl7MKmkN0muqvOy9qm-172">
          <mxCell style="ellipse;whiteSpace=wrap;html=1;aspect=fixed;fontSize=16;direction=south;perimeterSpacing=0;strokeWidth=1;dashed=1;dashPattern=8 8;" vertex="1" parent="R2zl7MKmkN0muqvOy9qm-171">
            <mxGeometry y="6.25" width="42.5" height="42.5" as="geometry" />
          </mxCell>
        </object>
        <object label="" markers="●" placeholders="1" id="R2zl7MKmkN0muqvOy9qm-173">
          <mxCell style="ellipse;whiteSpace=wrap;html=1;aspect=fixed;fontSize=16;direction=south;perimeterSpacing=0;strokeWidth=1;" vertex="1" parent="R2zl7MKmkN0muqvOy9qm-171">
            <mxGeometry x="3.75" y="10" width="35" height="35" as="geometry" />
          </mxCell>
        </object>
        <mxCell id="R2zl7MKmkN0muqvOy9qm-174" value="&lt;b&gt;startNorthDrive&lt;/b&gt;" style="text;html=1;strokeColor=none;fillColor=none;align=center;verticalAlign=middle;whiteSpace=wrap;rounded=0;fontSize=9;" vertex="1" parent="R2zl7MKmkN0muqvOy9qm-169">
          <mxGeometry x="10" width="20" height="10" as="geometry" />
        </mxCell>
        <mxCell id="R2zl7MKmkN0muqvOy9qm-175" value="" style="group" vertex="1" connectable="0" parent="R2zl7MKmkN0muqvOy9qm-268">
          <mxGeometry x="380" y="110" width="68.75" height="60" as="geometry" />
        </mxCell>
        <mxCell id="R2zl7MKmkN0muqvOy9qm-176" value="" style="group" vertex="1" connectable="0" parent="R2zl7MKmkN0muqvOy9qm-175">
          <mxGeometry y="10" width="52.5" height="50" as="geometry" />
        </mxCell>
        <mxCell id="R2zl7MKmkN0muqvOy9qm-177" value="" style="group" vertex="1" connectable="0" parent="R2zl7MKmkN0muqvOy9qm-176">
          <mxGeometry x="-3.75" width="56.25" height="48.75" as="geometry" />
        </mxCell>
        <object label="" markers="●" placeholders="1" id="R2zl7MKmkN0muqvOy9qm-178">
          <mxCell style="ellipse;whiteSpace=wrap;html=1;aspect=fixed;fontSize=16;direction=south;perimeterSpacing=0;strokeWidth=1;dashed=1;dashPattern=8 8;" vertex="1" parent="R2zl7MKmkN0muqvOy9qm-177">
            <mxGeometry y="6.25" width="42.5" height="42.5" as="geometry" />
          </mxCell>
        </object>
        <object label="" markers="●" placeholders="1" id="R2zl7MKmkN0muqvOy9qm-179">
          <mxCell style="ellipse;whiteSpace=wrap;html=1;aspect=fixed;fontSize=16;direction=south;perimeterSpacing=0;strokeWidth=1;" vertex="1" parent="R2zl7MKmkN0muqvOy9qm-177">
            <mxGeometry x="3.75" y="10" width="35" height="35" as="geometry" />
          </mxCell>
        </object>
        <mxCell id="R2zl7MKmkN0muqvOy9qm-180" value="&lt;b&gt;endNorthDrive&lt;/b&gt;" style="text;html=1;strokeColor=none;fillColor=none;align=center;verticalAlign=middle;whiteSpace=wrap;rounded=0;fontSize=9;" vertex="1" parent="R2zl7MKmkN0muqvOy9qm-175">
          <mxGeometry x="48.75" width="20" height="10" as="geometry" />
        </mxCell>
        <mxCell id="R2zl7MKmkN0muqvOy9qm-181" style="edgeStyle=none;curved=1;rounded=0;orthogonalLoop=1;jettySize=auto;html=1;exitX=0.5;exitY=0;exitDx=0;exitDy=0;entryX=0.5;entryY=1;entryDx=0;entryDy=0;entryPerimeter=0;fontSize=12;startSize=8;endSize=8;" edge="1" parent="R2zl7MKmkN0muqvOy9qm-268" source="R2zl7MKmkN0muqvOy9qm-172" target="R2zl7MKmkN0muqvOy9qm-137">
          <mxGeometry relative="1" as="geometry" />
        </mxCell>
        <mxCell id="R2zl7MKmkN0muqvOy9qm-182" style="edgeStyle=none;curved=1;rounded=0;orthogonalLoop=1;jettySize=auto;html=1;entryX=0.5;entryY=1;entryDx=0;entryDy=0;entryPerimeter=0;fontSize=12;startSize=8;endSize=8;" edge="1" parent="R2zl7MKmkN0muqvOy9qm-268" source="R2zl7MKmkN0muqvOy9qm-137" target="R2zl7MKmkN0muqvOy9qm-154">
          <mxGeometry relative="1" as="geometry" />
        </mxCell>
        <mxCell id="R2zl7MKmkN0muqvOy9qm-183" style="edgeStyle=none;curved=1;rounded=0;orthogonalLoop=1;jettySize=auto;html=1;exitX=0.5;exitY=0;exitDx=0;exitDy=0;exitPerimeter=0;entryX=0.5;entryY=1;entryDx=0;entryDy=0;entryPerimeter=0;fontSize=12;startSize=8;endSize=8;" edge="1" parent="R2zl7MKmkN0muqvOy9qm-268" source="R2zl7MKmkN0muqvOy9qm-154" target="R2zl7MKmkN0muqvOy9qm-157">
          <mxGeometry relative="1" as="geometry" />
        </mxCell>
        <mxCell id="R2zl7MKmkN0muqvOy9qm-184" style="edgeStyle=none;curved=1;rounded=0;orthogonalLoop=1;jettySize=auto;html=1;exitX=0.5;exitY=0;exitDx=0;exitDy=0;exitPerimeter=0;entryX=0.5;entryY=1;entryDx=0;entryDy=0;entryPerimeter=0;fontSize=12;startSize=8;endSize=8;" edge="1" parent="R2zl7MKmkN0muqvOy9qm-268" source="R2zl7MKmkN0muqvOy9qm-157" target="R2zl7MKmkN0muqvOy9qm-160">
          <mxGeometry relative="1" as="geometry" />
        </mxCell>
        <mxCell id="R2zl7MKmkN0muqvOy9qm-185" style="edgeStyle=none;curved=1;rounded=0;orthogonalLoop=1;jettySize=auto;html=1;exitX=0.5;exitY=0;exitDx=0;exitDy=0;exitPerimeter=0;entryX=0.5;entryY=1;entryDx=0;entryDy=0;fontSize=12;startSize=8;endSize=8;" edge="1" parent="R2zl7MKmkN0muqvOy9qm-268" source="R2zl7MKmkN0muqvOy9qm-160" target="R2zl7MKmkN0muqvOy9qm-178">
          <mxGeometry relative="1" as="geometry" />
        </mxCell>
        <mxCell id="R2zl7MKmkN0muqvOy9qm-136" value="&lt;b style=&quot;font-size: 9px;&quot;&gt;exitNorth&lt;/b&gt;" style="text;html=1;strokeColor=none;fillColor=none;align=center;verticalAlign=middle;whiteSpace=wrap;rounded=0;fontSize=9;points=[];container=0;" vertex="1" parent="R2zl7MKmkN0muqvOy9qm-268">
          <mxGeometry x="125.82090909090914" y="111" width="10.90909090909091" height="5.456666666666667" as="geometry" />
        </mxCell>
        <mxCell id="R2zl7MKmkN0muqvOy9qm-196" value="" style="group;fontSize=16;" vertex="1" connectable="0" parent="R2zl7MKmkN0muqvOy9qm-268">
          <mxGeometry x="298" y="245" width="55" height="45" as="geometry" />
        </mxCell>
        <mxCell id="R2zl7MKmkN0muqvOy9qm-197" value="&lt;b&gt;northSegment&lt;/b&gt;" style="text;html=1;strokeColor=none;fillColor=none;align=center;verticalAlign=middle;whiteSpace=wrap;rounded=0;fontSize=9;container=0;" vertex="1" parent="R2zl7MKmkN0muqvOy9qm-196">
          <mxGeometry x="45" width="20" height="10" as="geometry" />
        </mxCell>
        <object label="" markers="●" placeholders="1" id="R2zl7MKmkN0muqvOy9qm-198">
          <mxCell style="ellipse;whiteSpace=wrap;html=1;aspect=fixed;fontSize=16;direction=south;points=[[0,0.5,0,0,0],[0.5,0,0,0,0],[0.5,1,0,0,0],[1,0.5,0,0,0]];fillColor=#fff2cc;strokeColor=#d6b656;" vertex="1" parent="R2zl7MKmkN0muqvOy9qm-196">
            <mxGeometry y="10" width="35" height="35" as="geometry" />
          </mxCell>
        </object>
        <mxCell id="R2zl7MKmkN0muqvOy9qm-153" value="&lt;b style=&quot;font-size: 9px;&quot;&gt;driveNorth&lt;/b&gt;" style="text;html=1;strokeColor=none;fillColor=none;align=center;verticalAlign=middle;whiteSpace=wrap;rounded=0;fontSize=9;points=[];container=0;" vertex="1" parent="R2zl7MKmkN0muqvOy9qm-268">
          <mxGeometry x="195.82090909090914" y="111" width="10.90909090909091" height="5.456666666666667" as="geometry" />
        </mxCell>
        <mxCell id="R2zl7MKmkN0muqvOy9qm-156" value="&lt;b style=&quot;font-size: 9px;&quot;&gt;stallNorth&lt;/b&gt;" style="text;html=1;strokeColor=none;fillColor=none;align=center;verticalAlign=middle;whiteSpace=wrap;rounded=0;fontSize=9;points=[];container=0;" vertex="1" parent="R2zl7MKmkN0muqvOy9qm-268">
          <mxGeometry x="265.82090909090914" y="111" width="10.90909090909091" height="5.456666666666667" as="geometry" />
        </mxCell>
        <mxCell id="R2zl7MKmkN0muqvOy9qm-159" value="&lt;b style=&quot;font-size: 9px;&quot;&gt;passNorth&lt;/b&gt;" style="text;html=1;strokeColor=none;fillColor=none;align=center;verticalAlign=middle;whiteSpace=wrap;rounded=0;fontSize=9;points=[];container=0;" vertex="1" parent="R2zl7MKmkN0muqvOy9qm-268">
          <mxGeometry x="335.82090909090914" y="111" width="10.90909090909091" height="5.456666666666667" as="geometry" />
        </mxCell>
        <mxCell id="R2zl7MKmkN0muqvOy9qm-242" style="edgeStyle=orthogonalEdgeStyle;rounded=1;orthogonalLoop=1;jettySize=auto;html=1;exitX=0;exitY=0.5;exitDx=0;exitDy=0;exitPerimeter=0;entryX=1;entryY=0.5;entryDx=0;entryDy=0;entryPerimeter=0;fontSize=12;startSize=8;endSize=3;endArrow=circle;endFill=0;" edge="1" parent="R2zl7MKmkN0muqvOy9qm-268" source="R2zl7MKmkN0muqvOy9qm-198" target="R2zl7MKmkN0muqvOy9qm-160">
          <mxGeometry relative="1" as="geometry">
            <Array as="points">
              <mxPoint x="315" y="255" />
              <mxPoint x="315" y="220" />
              <mxPoint x="316" y="220" />
            </Array>
          </mxGeometry>
        </mxCell>
        <mxCell id="R2zl7MKmkN0muqvOy9qm-244" style="edgeStyle=orthogonalEdgeStyle;rounded=1;orthogonalLoop=1;jettySize=auto;html=1;entryX=1;entryY=0.5;entryDx=0;entryDy=0;entryPerimeter=0;fontSize=12;startSize=8;endSize=8;exitX=0;exitY=0.5;exitDx=0;exitDy=0;exitPerimeter=0;" edge="1" parent="R2zl7MKmkN0muqvOy9qm-268" source="R2zl7MKmkN0muqvOy9qm-198" target="R2zl7MKmkN0muqvOy9qm-154">
          <mxGeometry relative="1" as="geometry">
            <Array as="points">
              <mxPoint x="315" y="220" />
              <mxPoint x="175" y="220" />
            </Array>
          </mxGeometry>
        </mxCell>
        <mxCell id="R2zl7MKmkN0muqvOy9qm-245" style="edgeStyle=orthogonalEdgeStyle;rounded=1;orthogonalLoop=1;jettySize=auto;html=1;entryX=1;entryY=0.5;entryDx=0;entryDy=0;entryPerimeter=0;fontSize=12;startSize=8;endSize=8;exitX=0;exitY=0.5;exitDx=0;exitDy=0;exitPerimeter=0;" edge="1" parent="R2zl7MKmkN0muqvOy9qm-268" source="R2zl7MKmkN0muqvOy9qm-198" target="R2zl7MKmkN0muqvOy9qm-137">
          <mxGeometry relative="1" as="geometry">
            <Array as="points">
              <mxPoint x="315" y="220" />
              <mxPoint x="105" y="220" />
            </Array>
          </mxGeometry>
        </mxCell>
        <mxCell id="R2zl7MKmkN0muqvOy9qm-260" style="edgeStyle=orthogonalEdgeStyle;rounded=1;orthogonalLoop=1;jettySize=auto;html=1;exitX=0.5;exitY=1;exitDx=0;exitDy=0;entryX=0.142;entryY=1.003;entryDx=0;entryDy=0;entryPerimeter=0;fontSize=12;startSize=8;endSize=3;endArrow=circle;endFill=0;startArrow=classic;startFill=1;jumpStyle=line;" edge="1" parent="R2zl7MKmkN0muqvOy9qm-268" source="R2zl7MKmkN0muqvOy9qm-166" target="R2zl7MKmkN0muqvOy9qm-137">
          <mxGeometry relative="1" as="geometry" />
        </mxCell>
        <mxCell id="R2zl7MKmkN0muqvOy9qm-262" style="edgeStyle=orthogonalEdgeStyle;rounded=1;orthogonalLoop=1;jettySize=auto;html=1;entryX=0.173;entryY=1.03;entryDx=0;entryDy=0;entryPerimeter=0;fontSize=12;startSize=8;endSize=3;endArrow=circle;endFill=0;jumpStyle=line;" edge="1" parent="R2zl7MKmkN0muqvOy9qm-268" source="R2zl7MKmkN0muqvOy9qm-167" target="R2zl7MKmkN0muqvOy9qm-157">
          <mxGeometry relative="1" as="geometry">
            <Array as="points">
              <mxPoint x="226" y="38" />
              <mxPoint x="226" y="131" />
            </Array>
          </mxGeometry>
        </mxCell>
        <mxCell id="R2zl7MKmkN0muqvOy9qm-267" style="edgeStyle=orthogonalEdgeStyle;rounded=1;orthogonalLoop=1;jettySize=auto;html=1;exitX=0.5;exitY=1;exitDx=0;exitDy=0;exitPerimeter=0;entryX=1;entryY=0.5;entryDx=0;entryDy=0;entryPerimeter=0;fontSize=12;startSize=8;endSize=8;jumpStyle=line;startArrow=classic;startFill=1;" edge="1" parent="R2zl7MKmkN0muqvOy9qm-268" source="R2zl7MKmkN0muqvOy9qm-198" target="R2zl7MKmkN0muqvOy9qm-157">
          <mxGeometry relative="1" as="geometry" />
        </mxCell>
        <mxCell id="R2zl7MKmkN0muqvOy9qm-315" value="" style="group" vertex="1" connectable="0" parent="1">
          <mxGeometry x="409.9987878787879" y="781" width="25.82121212121217" height="60.918787878787896" as="geometry" />
        </mxCell>
        <mxCell id="R2zl7MKmkN0muqvOy9qm-316" value="" style="rounded=0;whiteSpace=wrap;html=1;fontSize=16;fillColor=#000000;points=[[0,0.5,0,0,0],[0.5,0,0,0,0],[0.5,1,0,0,0],[1,0.5,0,0,0]];rotation=90;container=0;" vertex="1" parent="R2zl7MKmkN0muqvOy9qm-315">
          <mxGeometry x="-19.088787878787855" y="30.916666666666686" width="49.09090909090909" height="10.913333333333334" as="geometry" />
        </mxCell>
        <mxCell id="R2zl7MKmkN0muqvOy9qm-317" value="" style="group" vertex="1" connectable="0" parent="1">
          <mxGeometry x="479.9987878787879" y="781" width="25.82121212121217" height="60.918787878787896" as="geometry" />
        </mxCell>
        <mxCell id="R2zl7MKmkN0muqvOy9qm-318" value="" style="rounded=0;whiteSpace=wrap;html=1;fontSize=16;fillColor=#000000;points=[[0,0.5,0,0,0],[0.5,0,0,0,0],[0.5,1,0,0,0],[1,0.5,0,0,0]];rotation=90;container=0;" vertex="1" parent="R2zl7MKmkN0muqvOy9qm-317">
          <mxGeometry x="-19.088787878787855" y="30.916666666666686" width="49.09090909090909" height="10.913333333333334" as="geometry" />
        </mxCell>
        <mxCell id="R2zl7MKmkN0muqvOy9qm-319" value="" style="group" vertex="1" connectable="0" parent="1">
          <mxGeometry x="549.9987878787879" y="781" width="40.00121212121215" height="60.918787878787896" as="geometry" />
        </mxCell>
        <mxCell id="R2zl7MKmkN0muqvOy9qm-320" value="" style="rounded=0;whiteSpace=wrap;html=1;fontSize=16;fillColor=#000000;points=[[0,0.5,0,0,0],[0.5,0,0,0,0],[0.5,1,0,0,0],[1,0.5,0,0,0]];rotation=90;container=0;" vertex="1" parent="R2zl7MKmkN0muqvOy9qm-319">
          <mxGeometry x="-19.088787878787855" y="30.916666666666686" width="49.09090909090909" height="10.913333333333334" as="geometry" />
        </mxCell>
        <mxCell id="R2zl7MKmkN0muqvOy9qm-349" value="&lt;b style=&quot;font-size: 9px;&quot;&gt;stallSouth&lt;/b&gt;" style="text;html=1;strokeColor=none;fillColor=none;align=center;verticalAlign=middle;whiteSpace=wrap;rounded=0;fontSize=9;points=[];container=0;" vertex="1" parent="R2zl7MKmkN0muqvOy9qm-319">
          <mxGeometry x="29.092121212121242" y="3.5399999999999636" width="10.90909090909091" height="5.456666666666667" as="geometry" />
        </mxCell>
        <mxCell id="R2zl7MKmkN0muqvOy9qm-321" value="" style="group" vertex="1" connectable="0" parent="1">
          <mxGeometry x="619.9987878787879" y="781" width="40.91121212121212" height="60.918787878787896" as="geometry" />
        </mxCell>
        <mxCell id="R2zl7MKmkN0muqvOy9qm-322" value="" style="rounded=0;whiteSpace=wrap;html=1;fontSize=16;fillColor=#000000;points=[[0,0.5,0,0,0],[0.5,0,0,0,0],[0.5,1,0,0,0],[1,0.5,0,0,0]];rotation=90;container=0;" vertex="1" parent="R2zl7MKmkN0muqvOy9qm-321">
          <mxGeometry x="-19.088787878787855" y="30.916666666666686" width="49.09090909090909" height="10.913333333333334" as="geometry" />
        </mxCell>
        <mxCell id="R2zl7MKmkN0muqvOy9qm-350" value="&lt;b style=&quot;font-size: 9px;&quot;&gt;passSouth&lt;/b&gt;" style="text;html=1;strokeColor=none;fillColor=none;align=center;verticalAlign=middle;whiteSpace=wrap;rounded=0;fontSize=9;points=[];container=0;" vertex="1" parent="R2zl7MKmkN0muqvOy9qm-321">
          <mxGeometry x="30.00212121212121" y="3.5399999999999636" width="10.90909090909091" height="5.456666666666667" as="geometry" />
        </mxCell>
        <mxCell id="R2zl7MKmkN0muqvOy9qm-323" value="" style="group" vertex="1" connectable="0" parent="1">
          <mxGeometry x="425" y="920" width="68.75" height="60" as="geometry" />
        </mxCell>
        <mxCell id="R2zl7MKmkN0muqvOy9qm-324" value="" style="group" vertex="1" connectable="0" parent="R2zl7MKmkN0muqvOy9qm-323">
          <mxGeometry y="10" width="52.5" height="50" as="geometry" />
        </mxCell>
        <mxCell id="R2zl7MKmkN0muqvOy9qm-325" value="" style="group" vertex="1" connectable="0" parent="R2zl7MKmkN0muqvOy9qm-324">
          <mxGeometry x="-3.75" width="56.25" height="48.75" as="geometry" />
        </mxCell>
        <object label="" markers="●" placeholders="1" id="R2zl7MKmkN0muqvOy9qm-326">
          <mxCell style="ellipse;whiteSpace=wrap;html=1;aspect=fixed;fontSize=16;direction=south;perimeterSpacing=0;strokeWidth=1;dashed=1;dashPattern=8 8;" vertex="1" parent="R2zl7MKmkN0muqvOy9qm-325">
            <mxGeometry y="6.25" width="42.5" height="42.5" as="geometry" />
          </mxCell>
        </object>
        <object label="" markers="●" placeholders="1" id="R2zl7MKmkN0muqvOy9qm-327">
          <mxCell style="ellipse;whiteSpace=wrap;html=1;aspect=fixed;fontSize=16;direction=south;perimeterSpacing=0;strokeWidth=1;" vertex="1" parent="R2zl7MKmkN0muqvOy9qm-325">
            <mxGeometry x="3.75" y="10" width="35" height="35" as="geometry" />
          </mxCell>
        </object>
        <mxCell id="R2zl7MKmkN0muqvOy9qm-328" value="&lt;b&gt;southOutput&lt;/b&gt;" style="text;html=1;strokeColor=none;fillColor=none;align=center;verticalAlign=middle;whiteSpace=wrap;rounded=0;fontSize=9;" vertex="1" parent="R2zl7MKmkN0muqvOy9qm-323">
          <mxGeometry x="48.75" width="20" height="10" as="geometry" />
        </mxCell>
        <mxCell id="R2zl7MKmkN0muqvOy9qm-329" value="" style="group" vertex="1" connectable="0" parent="1">
          <mxGeometry x="310" y="780" width="68.75" height="60" as="geometry" />
        </mxCell>
        <mxCell id="R2zl7MKmkN0muqvOy9qm-330" value="" style="group" vertex="1" connectable="0" parent="R2zl7MKmkN0muqvOy9qm-329">
          <mxGeometry y="10" width="52.5" height="50" as="geometry" />
        </mxCell>
        <mxCell id="R2zl7MKmkN0muqvOy9qm-331" value="" style="group" vertex="1" connectable="0" parent="R2zl7MKmkN0muqvOy9qm-330">
          <mxGeometry x="-3.75" width="56.25" height="48.75" as="geometry" />
        </mxCell>
        <object label="" markers="●" placeholders="1" id="R2zl7MKmkN0muqvOy9qm-332">
          <mxCell style="ellipse;whiteSpace=wrap;html=1;aspect=fixed;fontSize=16;direction=south;perimeterSpacing=0;strokeWidth=1;dashed=1;dashPattern=8 8;" vertex="1" parent="R2zl7MKmkN0muqvOy9qm-331">
            <mxGeometry y="6.25" width="42.5" height="42.5" as="geometry" />
          </mxCell>
        </object>
        <object label="" markers="●" placeholders="1" id="R2zl7MKmkN0muqvOy9qm-333">
          <mxCell style="ellipse;whiteSpace=wrap;html=1;aspect=fixed;fontSize=16;direction=south;perimeterSpacing=0;strokeWidth=1;" vertex="1" parent="R2zl7MKmkN0muqvOy9qm-331">
            <mxGeometry x="3.75" y="10" width="35" height="35" as="geometry" />
          </mxCell>
        </object>
        <mxCell id="R2zl7MKmkN0muqvOy9qm-334" value="&lt;b&gt;startSouthDrive&lt;/b&gt;" style="text;html=1;strokeColor=none;fillColor=none;align=center;verticalAlign=middle;whiteSpace=wrap;rounded=0;fontSize=9;" vertex="1" parent="R2zl7MKmkN0muqvOy9qm-329">
          <mxGeometry x="10" width="20" height="10" as="geometry" />
        </mxCell>
        <mxCell id="R2zl7MKmkN0muqvOy9qm-335" value="" style="group" vertex="1" connectable="0" parent="1">
          <mxGeometry x="690" y="790" width="55" height="50" as="geometry" />
        </mxCell>
        <mxCell id="R2zl7MKmkN0muqvOy9qm-336" value="" style="group" vertex="1" connectable="0" parent="R2zl7MKmkN0muqvOy9qm-335">
          <mxGeometry x="-3.75" width="58.75" height="48.75" as="geometry" />
        </mxCell>
        <object label="" markers="●" placeholders="1" id="R2zl7MKmkN0muqvOy9qm-337">
          <mxCell style="ellipse;whiteSpace=wrap;html=1;aspect=fixed;fontSize=16;direction=south;perimeterSpacing=0;strokeWidth=1;dashed=1;dashPattern=8 8;" vertex="1" parent="R2zl7MKmkN0muqvOy9qm-336">
            <mxGeometry y="6.25" width="42.5" height="42.5" as="geometry" />
          </mxCell>
        </object>
        <object label="" markers="●" placeholders="1" id="R2zl7MKmkN0muqvOy9qm-338">
          <mxCell style="ellipse;whiteSpace=wrap;html=1;aspect=fixed;fontSize=16;direction=south;perimeterSpacing=0;strokeWidth=1;" vertex="1" parent="R2zl7MKmkN0muqvOy9qm-336">
            <mxGeometry x="3.75" y="10" width="35" height="35" as="geometry" />
          </mxCell>
        </object>
        <mxCell id="R2zl7MKmkN0muqvOy9qm-339" style="edgeStyle=none;curved=1;rounded=0;orthogonalLoop=1;jettySize=auto;html=1;exitX=0.5;exitY=0;exitDx=0;exitDy=0;entryX=0.5;entryY=1;entryDx=0;entryDy=0;entryPerimeter=0;fontSize=12;startSize=8;endSize=8;" edge="1" parent="1" source="R2zl7MKmkN0muqvOy9qm-332" target="R2zl7MKmkN0muqvOy9qm-316">
          <mxGeometry relative="1" as="geometry" />
        </mxCell>
        <mxCell id="R2zl7MKmkN0muqvOy9qm-340" style="edgeStyle=none;curved=1;rounded=0;orthogonalLoop=1;jettySize=auto;html=1;entryX=0.5;entryY=1;entryDx=0;entryDy=0;entryPerimeter=0;fontSize=12;startSize=8;endSize=8;" edge="1" parent="1" source="R2zl7MKmkN0muqvOy9qm-316" target="R2zl7MKmkN0muqvOy9qm-318">
          <mxGeometry relative="1" as="geometry" />
        </mxCell>
        <mxCell id="R2zl7MKmkN0muqvOy9qm-341" style="edgeStyle=none;curved=1;rounded=0;orthogonalLoop=1;jettySize=auto;html=1;exitX=0.5;exitY=0;exitDx=0;exitDy=0;exitPerimeter=0;entryX=0.5;entryY=1;entryDx=0;entryDy=0;entryPerimeter=0;fontSize=12;startSize=8;endSize=8;" edge="1" parent="1" source="R2zl7MKmkN0muqvOy9qm-318" target="R2zl7MKmkN0muqvOy9qm-320">
          <mxGeometry relative="1" as="geometry" />
        </mxCell>
        <mxCell id="R2zl7MKmkN0muqvOy9qm-342" style="edgeStyle=none;curved=1;rounded=0;orthogonalLoop=1;jettySize=auto;html=1;exitX=0.5;exitY=0;exitDx=0;exitDy=0;exitPerimeter=0;entryX=0.5;entryY=1;entryDx=0;entryDy=0;entryPerimeter=0;fontSize=12;startSize=8;endSize=8;" edge="1" parent="1" source="R2zl7MKmkN0muqvOy9qm-320" target="R2zl7MKmkN0muqvOy9qm-322">
          <mxGeometry relative="1" as="geometry" />
        </mxCell>
        <mxCell id="R2zl7MKmkN0muqvOy9qm-343" style="edgeStyle=none;curved=1;rounded=0;orthogonalLoop=1;jettySize=auto;html=1;exitX=0.5;exitY=0;exitDx=0;exitDy=0;exitPerimeter=0;entryX=0.5;entryY=1;entryDx=0;entryDy=0;fontSize=12;startSize=8;endSize=8;" edge="1" parent="1" source="R2zl7MKmkN0muqvOy9qm-322" target="R2zl7MKmkN0muqvOy9qm-337">
          <mxGeometry relative="1" as="geometry" />
        </mxCell>
        <mxCell id="R2zl7MKmkN0muqvOy9qm-344" value="&lt;b style=&quot;font-size: 9px;&quot;&gt;exitSouth&lt;/b&gt;" style="text;html=1;strokeColor=none;fillColor=none;align=center;verticalAlign=middle;whiteSpace=wrap;rounded=0;fontSize=9;points=[];container=0;" vertex="1" parent="1">
          <mxGeometry x="435.82090909090914" y="784" width="10.90909090909091" height="5.456666666666667" as="geometry" />
        </mxCell>
        <mxCell id="R2zl7MKmkN0muqvOy9qm-348" value="&lt;b style=&quot;font-size: 9px;&quot;&gt;driveSouth&lt;/b&gt;" style="text;html=1;strokeColor=none;fillColor=none;align=center;verticalAlign=middle;whiteSpace=wrap;rounded=0;fontSize=9;points=[];container=0;" vertex="1" parent="1">
          <mxGeometry x="511.00090909090915" y="784" width="10.90909090909091" height="5.456666666666667" as="geometry" />
        </mxCell>
        <mxCell id="R2zl7MKmkN0muqvOy9qm-354" style="edgeStyle=orthogonalEdgeStyle;rounded=1;orthogonalLoop=1;jettySize=auto;html=1;exitX=0.5;exitY=1;exitDx=0;exitDy=0;entryX=0.827;entryY=0.99;entryDx=0;entryDy=0;entryPerimeter=0;fontSize=12;startSize=8;endSize=3;endArrow=circle;endFill=0;startArrow=classic;startFill=1;jumpStyle=line;" edge="1" parent="1" source="R2zl7MKmkN0muqvOy9qm-326" target="R2zl7MKmkN0muqvOy9qm-316">
          <mxGeometry relative="1" as="geometry" />
        </mxCell>
        <mxCell id="R2zl7MKmkN0muqvOy9qm-363" style="edgeStyle=orthogonalEdgeStyle;rounded=1;orthogonalLoop=1;jettySize=auto;html=1;entryX=0;entryY=0.5;entryDx=0;entryDy=0;entryPerimeter=0;fontSize=12;startSize=8;endSize=3;endArrow=circle;endFill=0;" edge="1" parent="1" source="R2zl7MKmkN0muqvOy9qm-201" target="R2zl7MKmkN0muqvOy9qm-322">
          <mxGeometry relative="1" as="geometry" />
        </mxCell>
        <mxCell id="R2zl7MKmkN0muqvOy9qm-366" style="edgeStyle=orthogonalEdgeStyle;rounded=1;orthogonalLoop=1;jettySize=auto;html=1;exitX=1;exitY=0.5;exitDx=0;exitDy=0;exitPerimeter=0;entryX=0;entryY=0.5;entryDx=0;entryDy=0;entryPerimeter=0;fontSize=12;startSize=8;endSize=8;" edge="1" parent="1" source="R2zl7MKmkN0muqvOy9qm-201" target="R2zl7MKmkN0muqvOy9qm-318">
          <mxGeometry relative="1" as="geometry" />
        </mxCell>
        <mxCell id="R2zl7MKmkN0muqvOy9qm-367" style="edgeStyle=orthogonalEdgeStyle;rounded=1;orthogonalLoop=1;jettySize=auto;html=1;exitX=1;exitY=0.5;exitDx=0;exitDy=0;exitPerimeter=0;entryX=0;entryY=0.5;entryDx=0;entryDy=0;entryPerimeter=0;fontSize=12;startSize=8;endSize=8;" edge="1" parent="1" source="R2zl7MKmkN0muqvOy9qm-201" target="R2zl7MKmkN0muqvOy9qm-316">
          <mxGeometry relative="1" as="geometry" />
        </mxCell>
        <mxCell id="R2zl7MKmkN0muqvOy9qm-369" style="edgeStyle=orthogonalEdgeStyle;rounded=1;orthogonalLoop=1;jettySize=auto;html=1;exitX=0;exitY=0.5;exitDx=0;exitDy=0;exitPerimeter=0;entryX=0.5;entryY=1;entryDx=0;entryDy=0;entryPerimeter=0;fontSize=12;startSize=8;endSize=8;jumpStyle=line;" edge="1" parent="1" source="R2zl7MKmkN0muqvOy9qm-320" target="R2zl7MKmkN0muqvOy9qm-201">
          <mxGeometry relative="1" as="geometry" />
        </mxCell>
        <mxCell id="R2zl7MKmkN0muqvOy9qm-370" value="&lt;b&gt;endSouthDrive&lt;/b&gt;" style="text;html=1;strokeColor=none;fillColor=none;align=center;verticalAlign=middle;whiteSpace=wrap;rounded=0;fontSize=9;" vertex="1" parent="1">
          <mxGeometry x="725" y="783" width="20" height="10" as="geometry" />
        </mxCell>
        <mxCell id="R2zl7MKmkN0muqvOy9qm-371" style="edgeStyle=orthogonalEdgeStyle;rounded=1;orthogonalLoop=1;jettySize=auto;html=1;exitX=0;exitY=0.5;exitDx=0;exitDy=0;exitPerimeter=0;entryX=1;entryY=0.5;entryDx=0;entryDy=0;entryPerimeter=0;fontSize=12;startSize=8;endSize=3;fillColor=#e1d5e7;strokeColor=#9673a6;endArrow=circle;endFill=0;startArrow=classic;startFill=1;" edge="1" parent="1" source="R2zl7MKmkN0muqvOy9qm-201" target="R2zl7MKmkN0muqvOy9qm-215">
          <mxGeometry relative="1" as="geometry">
            <Array as="points">
              <mxPoint x="626" y="620" />
              <mxPoint x="440" y="620" />
              <mxPoint x="440" y="441" />
            </Array>
          </mxGeometry>
        </mxCell>
        <mxCell id="R2zl7MKmkN0muqvOy9qm-373" style="edgeStyle=none;curved=1;rounded=0;orthogonalLoop=1;jettySize=auto;html=1;entryX=0.5;entryY=0;entryDx=0;entryDy=0;fontSize=12;startSize=8;endSize=8;" edge="1" parent="1" source="R2zl7MKmkN0muqvOy9qm-385" target="R2zl7MKmkN0muqvOy9qm-376">
          <mxGeometry relative="1" as="geometry" />
        </mxCell>
        <mxCell id="R2zl7MKmkN0muqvOy9qm-374" value="" style="group" vertex="1" connectable="0" parent="1">
          <mxGeometry x="950" y="424" width="70.91" height="21.830000000000013" as="geometry" />
        </mxCell>
        <mxCell id="R2zl7MKmkN0muqvOy9qm-375" value="" style="group" vertex="1" connectable="0" parent="R2zl7MKmkN0muqvOy9qm-374">
          <mxGeometry y="5.460000000000008" width="60" height="16.37" as="geometry" />
        </mxCell>
        <mxCell id="R2zl7MKmkN0muqvOy9qm-376" value="" style="rounded=0;whiteSpace=wrap;html=1;fontSize=16;fillColor=#000000;" vertex="1" parent="R2zl7MKmkN0muqvOy9qm-375">
          <mxGeometry y="5.456666666666667" width="49.09090909090909" height="10.913333333333334" as="geometry" />
        </mxCell>
        <mxCell id="R2zl7MKmkN0muqvOy9qm-377" value="&lt;b&gt;mergeEast&lt;/b&gt;" style="text;html=1;strokeColor=none;fillColor=none;align=center;verticalAlign=middle;whiteSpace=wrap;rounded=0;fontSize=9;" vertex="1" parent="R2zl7MKmkN0muqvOy9qm-374">
          <mxGeometry x="60.00090909090909" width="10.90909090909091" height="5.456666666666667" as="geometry" />
        </mxCell>
        <mxCell id="R2zl7MKmkN0muqvOy9qm-378" value="" style="group" vertex="1" connectable="0" parent="1">
          <mxGeometry x="950" y="480" width="70.91" height="21.830000000000013" as="geometry" />
        </mxCell>
        <mxCell id="R2zl7MKmkN0muqvOy9qm-379" value="" style="group" vertex="1" connectable="0" parent="R2zl7MKmkN0muqvOy9qm-378">
          <mxGeometry y="5.460000000000008" width="60" height="16.37" as="geometry" />
        </mxCell>
        <mxCell id="R2zl7MKmkN0muqvOy9qm-380" value="" style="rounded=0;whiteSpace=wrap;html=1;fontSize=16;fillColor=#000000;" vertex="1" parent="R2zl7MKmkN0muqvOy9qm-379">
          <mxGeometry y="5.456666666666667" width="49.09090909090909" height="10.913333333333334" as="geometry" />
        </mxCell>
        <mxCell id="R2zl7MKmkN0muqvOy9qm-381" value="&lt;b&gt;waitEast&lt;/b&gt;" style="text;html=1;strokeColor=none;fillColor=none;align=center;verticalAlign=middle;whiteSpace=wrap;rounded=0;fontSize=9;" vertex="1" parent="R2zl7MKmkN0muqvOy9qm-378">
          <mxGeometry x="59.00090909090909" y="3" width="10.90909090909091" height="5.456666666666667" as="geometry" />
        </mxCell>
        <mxCell id="R2zl7MKmkN0muqvOy9qm-382" value="" style="group" vertex="1" connectable="0" parent="1">
          <mxGeometry x="957.5" y="340" width="68.75" height="60" as="geometry" />
        </mxCell>
        <mxCell id="R2zl7MKmkN0muqvOy9qm-383" value="" style="group" vertex="1" connectable="0" parent="R2zl7MKmkN0muqvOy9qm-382">
          <mxGeometry y="10" width="52.5" height="50" as="geometry" />
        </mxCell>
        <mxCell id="R2zl7MKmkN0muqvOy9qm-384" value="" style="group" vertex="1" connectable="0" parent="R2zl7MKmkN0muqvOy9qm-383">
          <mxGeometry x="-3.75" width="56.25" height="48.75" as="geometry" />
        </mxCell>
        <object label="" markers="●" placeholders="1" id="R2zl7MKmkN0muqvOy9qm-385">
          <mxCell style="ellipse;whiteSpace=wrap;html=1;aspect=fixed;fontSize=16;direction=south;perimeterSpacing=0;strokeWidth=1;dashed=1;dashPattern=8 8;" vertex="1" parent="R2zl7MKmkN0muqvOy9qm-384">
            <mxGeometry y="6.25" width="42.5" height="42.5" as="geometry" />
          </mxCell>
        </object>
        <object label="" markers="●" placeholders="1" id="R2zl7MKmkN0muqvOy9qm-386">
          <mxCell style="ellipse;whiteSpace=wrap;html=1;aspect=fixed;fontSize=16;direction=south;perimeterSpacing=0;strokeWidth=1;" vertex="1" parent="R2zl7MKmkN0muqvOy9qm-384">
            <mxGeometry x="3.75" y="10" width="35" height="35" as="geometry" />
          </mxCell>
        </object>
        <mxCell id="R2zl7MKmkN0muqvOy9qm-387" value="&lt;b&gt;startEastMerge&lt;/b&gt;" style="text;html=1;strokeColor=none;fillColor=none;align=center;verticalAlign=middle;whiteSpace=wrap;rounded=0;fontSize=9;" vertex="1" parent="R2zl7MKmkN0muqvOy9qm-382">
          <mxGeometry x="48.75" width="20" height="10" as="geometry" />
        </mxCell>
        <mxCell id="R2zl7MKmkN0muqvOy9qm-388" style="edgeStyle=none;curved=1;rounded=0;orthogonalLoop=1;jettySize=auto;html=1;exitX=0.5;exitY=1;exitDx=0;exitDy=0;entryX=0.5;entryY=0;entryDx=0;entryDy=0;fontSize=12;startSize=8;endSize=8;" edge="1" parent="1" source="R2zl7MKmkN0muqvOy9qm-376" target="R2zl7MKmkN0muqvOy9qm-380">
          <mxGeometry relative="1" as="geometry" />
        </mxCell>
        <mxCell id="R2zl7MKmkN0muqvOy9qm-389" value="" style="group" vertex="1" connectable="0" parent="1">
          <mxGeometry x="950" y="520" width="70.91" height="21.830000000000013" as="geometry" />
        </mxCell>
        <mxCell id="R2zl7MKmkN0muqvOy9qm-390" value="" style="group" vertex="1" connectable="0" parent="R2zl7MKmkN0muqvOy9qm-389">
          <mxGeometry y="5.460000000000008" width="60" height="16.37" as="geometry" />
        </mxCell>
        <mxCell id="R2zl7MKmkN0muqvOy9qm-391" value="" style="rounded=0;whiteSpace=wrap;html=1;fontSize=16;fillColor=#000000;" vertex="1" parent="R2zl7MKmkN0muqvOy9qm-390">
          <mxGeometry y="5.456666666666667" width="49.09090909090909" height="10.913333333333334" as="geometry" />
        </mxCell>
        <mxCell id="R2zl7MKmkN0muqvOy9qm-392" value="&lt;b&gt;emptyEast&lt;/b&gt;" style="text;html=1;strokeColor=none;fillColor=none;align=center;verticalAlign=middle;whiteSpace=wrap;rounded=0;fontSize=9;" vertex="1" parent="R2zl7MKmkN0muqvOy9qm-389">
          <mxGeometry x="60.00090909090909" width="10.90909090909091" height="5.456666666666667" as="geometry" />
        </mxCell>
        <mxCell id="R2zl7MKmkN0muqvOy9qm-393" style="edgeStyle=none;curved=1;rounded=0;orthogonalLoop=1;jettySize=auto;html=1;exitX=0.5;exitY=1;exitDx=0;exitDy=0;entryX=0.5;entryY=0;entryDx=0;entryDy=0;fontSize=12;startSize=8;endSize=8;" edge="1" parent="1" source="R2zl7MKmkN0muqvOy9qm-380" target="R2zl7MKmkN0muqvOy9qm-391">
          <mxGeometry relative="1" as="geometry" />
        </mxCell>
        <mxCell id="R2zl7MKmkN0muqvOy9qm-394" value="" style="group" vertex="1" connectable="0" parent="1">
          <mxGeometry x="957" y="570" width="68.75" height="60" as="geometry" />
        </mxCell>
        <mxCell id="R2zl7MKmkN0muqvOy9qm-395" value="" style="group" vertex="1" connectable="0" parent="R2zl7MKmkN0muqvOy9qm-394">
          <mxGeometry y="10" width="52.5" height="50" as="geometry" />
        </mxCell>
        <mxCell id="R2zl7MKmkN0muqvOy9qm-396" value="" style="group" vertex="1" connectable="0" parent="R2zl7MKmkN0muqvOy9qm-395">
          <mxGeometry x="-3.75" width="56.25" height="48.75" as="geometry" />
        </mxCell>
        <object label="" markers="●" placeholders="1" id="R2zl7MKmkN0muqvOy9qm-397">
          <mxCell style="ellipse;whiteSpace=wrap;html=1;aspect=fixed;fontSize=16;direction=south;perimeterSpacing=0;strokeWidth=1;dashed=1;dashPattern=8 8;" vertex="1" parent="R2zl7MKmkN0muqvOy9qm-396">
            <mxGeometry y="6.25" width="42.5" height="42.5" as="geometry" />
          </mxCell>
        </object>
        <object label="" markers="●" placeholders="1" id="R2zl7MKmkN0muqvOy9qm-398">
          <mxCell style="ellipse;whiteSpace=wrap;html=1;aspect=fixed;fontSize=16;direction=south;perimeterSpacing=0;strokeWidth=1;" vertex="1" parent="R2zl7MKmkN0muqvOy9qm-396">
            <mxGeometry x="3.75" y="10" width="35" height="35" as="geometry" />
          </mxCell>
        </object>
        <mxCell id="R2zl7MKmkN0muqvOy9qm-399" value="&lt;b&gt;endEastMerge&lt;/b&gt;" style="text;html=1;strokeColor=none;fillColor=none;align=center;verticalAlign=middle;whiteSpace=wrap;rounded=0;fontSize=9;" vertex="1" parent="R2zl7MKmkN0muqvOy9qm-394">
          <mxGeometry x="48.75" width="20" height="10" as="geometry" />
        </mxCell>
        <mxCell id="R2zl7MKmkN0muqvOy9qm-400" style="edgeStyle=none;curved=1;rounded=0;orthogonalLoop=1;jettySize=auto;html=1;exitX=0.5;exitY=1;exitDx=0;exitDy=0;entryX=0;entryY=0.5;entryDx=0;entryDy=0;fontSize=12;startSize=8;endSize=8;" edge="1" parent="1" source="R2zl7MKmkN0muqvOy9qm-391" target="R2zl7MKmkN0muqvOy9qm-397">
          <mxGeometry relative="1" as="geometry" />
        </mxCell>
        <mxCell id="R2zl7MKmkN0muqvOy9qm-401" value="" style="group" vertex="1" connectable="0" parent="1">
          <mxGeometry x="1070" y="403" width="68.75" height="60" as="geometry" />
        </mxCell>
        <mxCell id="R2zl7MKmkN0muqvOy9qm-402" value="" style="group" vertex="1" connectable="0" parent="R2zl7MKmkN0muqvOy9qm-401">
          <mxGeometry y="10" width="52.5" height="50" as="geometry" />
        </mxCell>
        <mxCell id="R2zl7MKmkN0muqvOy9qm-403" value="" style="group" vertex="1" connectable="0" parent="R2zl7MKmkN0muqvOy9qm-402">
          <mxGeometry x="-3.75" width="56.25" height="48.75" as="geometry" />
        </mxCell>
        <object label="" markers="●" placeholders="1" id="R2zl7MKmkN0muqvOy9qm-404">
          <mxCell style="ellipse;whiteSpace=wrap;html=1;aspect=fixed;fontSize=16;direction=south;perimeterSpacing=0;strokeWidth=1;dashed=1;dashPattern=8 8;" vertex="1" parent="R2zl7MKmkN0muqvOy9qm-403">
            <mxGeometry y="6.25" width="42.5" height="42.5" as="geometry" />
          </mxCell>
        </object>
        <object label="" markers="●" placeholders="1" id="R2zl7MKmkN0muqvOy9qm-405">
          <mxCell style="ellipse;whiteSpace=wrap;html=1;aspect=fixed;fontSize=16;direction=south;perimeterSpacing=0;strokeWidth=1;" vertex="1" parent="R2zl7MKmkN0muqvOy9qm-403">
            <mxGeometry x="3.75" y="10" width="35" height="35" as="geometry" />
          </mxCell>
        </object>
        <mxCell id="R2zl7MKmkN0muqvOy9qm-406" value="&lt;b&gt;eastInput&lt;/b&gt;" style="text;html=1;strokeColor=none;fillColor=none;align=center;verticalAlign=middle;whiteSpace=wrap;rounded=0;fontSize=9;" vertex="1" parent="R2zl7MKmkN0muqvOy9qm-401">
          <mxGeometry x="32.5" width="20" height="10" as="geometry" />
        </mxCell>
        <mxCell id="R2zl7MKmkN0muqvOy9qm-415" value="" style="group;fontSize=16;" vertex="1" connectable="0" parent="1">
          <mxGeometry x="770" y="424" width="70.91" height="21.830000000000013" as="geometry" />
        </mxCell>
        <mxCell id="R2zl7MKmkN0muqvOy9qm-416" value="" style="group;points=[[0,0.5,0,0,0],[0.5,0,0,0,0],[0.5,1,0,0,0],[1,0.5,0,0,0]];fontSize=16;" vertex="1" connectable="0" parent="R2zl7MKmkN0muqvOy9qm-415">
          <mxGeometry y="5.460000000000008" width="60" height="16.37" as="geometry" />
        </mxCell>
        <mxCell id="R2zl7MKmkN0muqvOy9qm-417" value="" style="rounded=0;whiteSpace=wrap;html=1;fontSize=16;fillColor=#000000;points=[[0,0.5,0,0,0],[0.5,0,0,0,0],[0.5,1,0,0,0],[1,0.5,0,0,0]];" vertex="1" parent="R2zl7MKmkN0muqvOy9qm-416">
          <mxGeometry y="5.456666666666667" width="49.09090909090909" height="10.913333333333334" as="geometry" />
        </mxCell>
        <mxCell id="R2zl7MKmkN0muqvOy9qm-418" value="&lt;b style=&quot;font-size: 9px;&quot;&gt;driveEast&lt;/b&gt;" style="text;html=1;strokeColor=none;fillColor=none;align=center;verticalAlign=middle;whiteSpace=wrap;rounded=0;fontSize=9;" vertex="1" parent="R2zl7MKmkN0muqvOy9qm-415">
          <mxGeometry x="60.00090909090909" width="10.90909090909091" height="5.456666666666667" as="geometry" />
        </mxCell>
        <mxCell id="R2zl7MKmkN0muqvOy9qm-419" value="" style="group;fontSize=16;" vertex="1" connectable="0" parent="1">
          <mxGeometry x="770" y="480" width="70.91" height="21.830000000000013" as="geometry" />
        </mxCell>
        <mxCell id="R2zl7MKmkN0muqvOy9qm-420" value="" style="group;points=[[0,0.5,0,0,0],[0.5,0,0,0,0],[0.5,1,0,0,0],[1,0.5,0,0,0]];fontSize=16;" vertex="1" connectable="0" parent="R2zl7MKmkN0muqvOy9qm-419">
          <mxGeometry y="5.460000000000008" width="60" height="16.37" as="geometry" />
        </mxCell>
        <mxCell id="R2zl7MKmkN0muqvOy9qm-422" value="" style="rounded=0;whiteSpace=wrap;html=1;fontSize=16;fillColor=#000000;points=[[0,0.5,0,0,0],[0.5,0,0,0,0],[0.5,1,0,0,0],[1,0.5,0,0,0]];" vertex="1" parent="R2zl7MKmkN0muqvOy9qm-420">
          <mxGeometry y="5.456666666666667" width="49.09090909090909" height="10.913333333333334" as="geometry" />
        </mxCell>
        <mxCell id="R2zl7MKmkN0muqvOy9qm-423" value="&lt;b style=&quot;font-size: 9px;&quot;&gt;stallEast&lt;/b&gt;" style="text;html=1;strokeColor=none;fillColor=none;align=center;verticalAlign=middle;whiteSpace=wrap;rounded=0;fontSize=9;" vertex="1" parent="R2zl7MKmkN0muqvOy9qm-419">
          <mxGeometry x="60.00090909090909" width="10.90909090909091" height="5.456666666666667" as="geometry" />
        </mxCell>
        <mxCell id="R2zl7MKmkN0muqvOy9qm-424" value="" style="group;fontSize=16;" vertex="1" connectable="0" parent="1">
          <mxGeometry x="770" y="524" width="70.91" height="21.830000000000013" as="geometry" />
        </mxCell>
        <mxCell id="R2zl7MKmkN0muqvOy9qm-425" value="" style="group;points=[[0,0.5,0,0,0],[0.5,0,0,0,0],[0.5,1,0,0,0],[1,0.5,0,0,0]];fontSize=16;" vertex="1" connectable="0" parent="R2zl7MKmkN0muqvOy9qm-424">
          <mxGeometry y="5.460000000000008" width="60" height="16.37" as="geometry" />
        </mxCell>
        <mxCell id="R2zl7MKmkN0muqvOy9qm-426" value="" style="rounded=0;whiteSpace=wrap;html=1;fontSize=16;fillColor=#000000;points=[[0,0.5,0,0,0],[0.5,0,0,0,0],[0.5,1,0,0,0],[1,0.5,0,0,0]];" vertex="1" parent="R2zl7MKmkN0muqvOy9qm-425">
          <mxGeometry y="5.456666666666667" width="49.09090909090909" height="10.913333333333334" as="geometry" />
        </mxCell>
        <mxCell id="R2zl7MKmkN0muqvOy9qm-427" value="&lt;b style=&quot;font-size: 9px;&quot;&gt;passEast&lt;/b&gt;" style="text;html=1;strokeColor=none;fillColor=none;align=center;verticalAlign=middle;whiteSpace=wrap;rounded=0;fontSize=9;" vertex="1" parent="R2zl7MKmkN0muqvOy9qm-424">
          <mxGeometry x="60.00090909090909" width="10.90909090909091" height="5.456666666666667" as="geometry" />
        </mxCell>
        <mxCell id="R2zl7MKmkN0muqvOy9qm-428" value="" style="group;fontSize=16;" vertex="1" connectable="0" parent="1">
          <mxGeometry x="777.8" y="340" width="68.75" height="60" as="geometry" />
        </mxCell>
        <mxCell id="R2zl7MKmkN0muqvOy9qm-429" value="" style="group;fontSize=16;" vertex="1" connectable="0" parent="R2zl7MKmkN0muqvOy9qm-428">
          <mxGeometry y="10" width="52.5" height="50" as="geometry" />
        </mxCell>
        <mxCell id="R2zl7MKmkN0muqvOy9qm-430" value="" style="group;fontSize=16;" vertex="1" connectable="0" parent="R2zl7MKmkN0muqvOy9qm-429">
          <mxGeometry x="-3.75" width="56.25" height="48.75" as="geometry" />
        </mxCell>
        <object label="" markers="●" placeholders="1" id="R2zl7MKmkN0muqvOy9qm-431">
          <mxCell style="ellipse;whiteSpace=wrap;html=1;aspect=fixed;fontSize=16;direction=south;perimeterSpacing=0;strokeWidth=1;dashed=1;dashPattern=8 8;points=[[0,0.5,0,0,0],[0.5,0,0,0,0],[0.5,1,0,0,0],[1,0.5,0,0,0]];" vertex="1" parent="R2zl7MKmkN0muqvOy9qm-430">
            <mxGeometry y="6.25" width="42.5" height="42.5" as="geometry" />
          </mxCell>
        </object>
        <object label="" markers="●" placeholders="1" id="R2zl7MKmkN0muqvOy9qm-432">
          <mxCell style="ellipse;whiteSpace=wrap;html=1;aspect=fixed;fontSize=16;direction=south;perimeterSpacing=0;strokeWidth=1;points=[];" vertex="1" parent="R2zl7MKmkN0muqvOy9qm-430">
            <mxGeometry x="3.75" y="10" width="35" height="35" as="geometry" />
          </mxCell>
        </object>
        <mxCell id="R2zl7MKmkN0muqvOy9qm-433" value="&lt;b&gt;startEastDrive&lt;/b&gt;" style="text;html=1;strokeColor=none;fillColor=none;align=center;verticalAlign=middle;whiteSpace=wrap;rounded=0;fontSize=9;" vertex="1" parent="R2zl7MKmkN0muqvOy9qm-428">
          <mxGeometry x="48.75" width="20" height="10" as="geometry" />
        </mxCell>
        <mxCell id="R2zl7MKmkN0muqvOy9qm-434" style="edgeStyle=none;curved=1;rounded=0;orthogonalLoop=1;jettySize=auto;html=1;entryX=0.5;entryY=0;entryDx=0;entryDy=0;entryPerimeter=0;fontSize=12;startSize=8;endSize=8;" edge="1" parent="1" source="R2zl7MKmkN0muqvOy9qm-431" target="R2zl7MKmkN0muqvOy9qm-417">
          <mxGeometry relative="1" as="geometry" />
        </mxCell>
        <mxCell id="R2zl7MKmkN0muqvOy9qm-436" style="edgeStyle=none;curved=1;rounded=0;orthogonalLoop=1;jettySize=auto;html=1;entryX=0.5;entryY=0;entryDx=0;entryDy=0;entryPerimeter=0;fontSize=12;startSize=8;endSize=8;" edge="1" parent="1" source="R2zl7MKmkN0muqvOy9qm-417" target="R2zl7MKmkN0muqvOy9qm-422">
          <mxGeometry relative="1" as="geometry" />
        </mxCell>
        <mxCell id="R2zl7MKmkN0muqvOy9qm-437" style="edgeStyle=none;curved=1;rounded=0;orthogonalLoop=1;jettySize=auto;html=1;entryX=0.5;entryY=0;entryDx=0;entryDy=0;entryPerimeter=0;fontSize=12;startSize=8;endSize=8;" edge="1" parent="1" source="R2zl7MKmkN0muqvOy9qm-422" target="R2zl7MKmkN0muqvOy9qm-426">
          <mxGeometry relative="1" as="geometry" />
        </mxCell>
        <mxCell id="R2zl7MKmkN0muqvOy9qm-438" value="" style="group;fontSize=16;" vertex="1" connectable="0" parent="1">
          <mxGeometry x="777" y="570" width="68.75" height="60" as="geometry" />
        </mxCell>
        <mxCell id="R2zl7MKmkN0muqvOy9qm-439" value="" style="group;fontSize=16;" vertex="1" connectable="0" parent="R2zl7MKmkN0muqvOy9qm-438">
          <mxGeometry y="10" width="52.5" height="50" as="geometry" />
        </mxCell>
        <mxCell id="R2zl7MKmkN0muqvOy9qm-440" value="" style="group;fontSize=16;" vertex="1" connectable="0" parent="R2zl7MKmkN0muqvOy9qm-439">
          <mxGeometry x="-3.75" width="56.25" height="48.75" as="geometry" />
        </mxCell>
        <object label="" markers="●" placeholders="1" id="R2zl7MKmkN0muqvOy9qm-441">
          <mxCell style="ellipse;whiteSpace=wrap;html=1;aspect=fixed;fontSize=16;direction=south;perimeterSpacing=0;strokeWidth=1;dashed=1;dashPattern=8 8;points=[[0,0.5,0,0,0],[0.5,0,0,0,0],[0.5,1,0,0,0],[1,0.5,0,0,0]];" vertex="1" parent="R2zl7MKmkN0muqvOy9qm-440">
            <mxGeometry y="6.25" width="42.5" height="42.5" as="geometry" />
          </mxCell>
        </object>
        <object label="" markers="●" placeholders="1" id="R2zl7MKmkN0muqvOy9qm-442">
          <mxCell style="ellipse;whiteSpace=wrap;html=1;aspect=fixed;fontSize=16;direction=south;perimeterSpacing=0;strokeWidth=1;points=[];" vertex="1" parent="R2zl7MKmkN0muqvOy9qm-440">
            <mxGeometry x="3.75" y="10" width="35" height="35" as="geometry" />
          </mxCell>
        </object>
        <mxCell id="R2zl7MKmkN0muqvOy9qm-443" value="&lt;b&gt;endEastDrive&lt;/b&gt;" style="text;html=1;strokeColor=none;fillColor=none;align=center;verticalAlign=middle;whiteSpace=wrap;rounded=0;fontSize=9;" vertex="1" parent="R2zl7MKmkN0muqvOy9qm-438">
          <mxGeometry x="48.75" width="20" height="10" as="geometry" />
        </mxCell>
        <mxCell id="R2zl7MKmkN0muqvOy9qm-444" style="edgeStyle=none;curved=1;rounded=0;orthogonalLoop=1;jettySize=auto;html=1;exitX=0.5;exitY=1;exitDx=0;exitDy=0;exitPerimeter=0;entryX=0;entryY=0.5;entryDx=0;entryDy=0;entryPerimeter=0;fontSize=12;startSize=8;endSize=8;" edge="1" parent="1" source="R2zl7MKmkN0muqvOy9qm-426" target="R2zl7MKmkN0muqvOy9qm-441">
          <mxGeometry relative="1" as="geometry" />
        </mxCell>
        <mxCell id="R2zl7MKmkN0muqvOy9qm-450" style="edgeStyle=none;curved=1;rounded=0;orthogonalLoop=1;jettySize=auto;html=1;exitX=0.5;exitY=1;exitDx=0;exitDy=0;exitPerimeter=0;entryX=1;entryY=0.5;entryDx=0;entryDy=0;entryPerimeter=0;fontSize=12;startSize=8;endSize=8;" edge="1" parent="1" source="R2zl7MKmkN0muqvOy9qm-412" target="R2zl7MKmkN0muqvOy9qm-417">
          <mxGeometry relative="1" as="geometry" />
        </mxCell>
        <mxCell id="R2zl7MKmkN0muqvOy9qm-451" style="edgeStyle=none;curved=1;rounded=0;orthogonalLoop=1;jettySize=auto;html=1;exitX=0;exitY=0.5;exitDx=0;exitDy=0;entryX=0.5;entryY=0;entryDx=0;entryDy=0;entryPerimeter=0;fontSize=12;startSize=8;endSize=8;" edge="1" parent="1" source="R2zl7MKmkN0muqvOy9qm-376" target="R2zl7MKmkN0muqvOy9qm-412">
          <mxGeometry relative="1" as="geometry" />
        </mxCell>
        <mxCell id="R2zl7MKmkN0muqvOy9qm-459" style="edgeStyle=orthogonalEdgeStyle;rounded=1;orthogonalLoop=1;jettySize=auto;html=1;exitX=0.5;exitY=0;exitDx=0;exitDy=0;exitPerimeter=0;entryX=0;entryY=0.5;entryDx=0;entryDy=0;entryPerimeter=0;fontSize=12;startSize=8;endSize=3;fillColor=#fff2cc;strokeColor=#d6b656;endArrow=circle;endFill=0;startArrow=classic;startFill=1;" edge="1" parent="1" source="R2zl7MKmkN0muqvOy9qm-198" target="R2zl7MKmkN0muqvOy9qm-417">
          <mxGeometry relative="1" as="geometry" />
        </mxCell>
        <mxCell id="R2zl7MKmkN0muqvOy9qm-462" style="edgeStyle=orthogonalEdgeStyle;rounded=1;orthogonalLoop=1;jettySize=auto;html=1;exitX=0.117;exitY=0.767;exitDx=0;exitDy=0;exitPerimeter=0;entryX=0.822;entryY=1.041;entryDx=0;entryDy=0;entryPerimeter=0;fontSize=12;startSize=8;endSize=3;fillColor=#f8cecc;strokeColor=#b85450;jumpStyle=line;endArrow=circle;endFill=0;startArrow=classic;startFill=1;" edge="1" parent="1" source="R2zl7MKmkN0muqvOy9qm-204" target="R2zl7MKmkN0muqvOy9qm-154">
          <mxGeometry relative="1" as="geometry">
            <Array as="points">
              <mxPoint x="228" y="243" />
              <mxPoint x="350" y="243" />
              <mxPoint x="350" y="163" />
            </Array>
          </mxGeometry>
        </mxCell>
        <mxCell id="R2zl7MKmkN0muqvOy9qm-465" style="edgeStyle=orthogonalEdgeStyle;rounded=1;orthogonalLoop=1;jettySize=auto;html=1;exitX=1;exitY=0.5;exitDx=0;exitDy=0;exitPerimeter=0;entryX=0.162;entryY=0.963;entryDx=0;entryDy=0;entryPerimeter=0;fontSize=12;startSize=8;endSize=3;fillColor=#dae8fc;strokeColor=#6c8ebf;endArrow=circle;endFill=0;startArrow=classic;startFill=1;jumpStyle=line;" edge="1" parent="1" source="R2zl7MKmkN0muqvOy9qm-412" target="R2zl7MKmkN0muqvOy9qm-318">
          <mxGeometry relative="1" as="geometry">
            <Array as="points">
              <mxPoint x="887" y="750" />
              <mxPoint x="464" y="750" />
              <mxPoint x="464" y="801" />
            </Array>
          </mxGeometry>
        </mxCell>
        <mxCell id="R2zl7MKmkN0muqvOy9qm-466" style="edgeStyle=orthogonalEdgeStyle;rounded=1;orthogonalLoop=1;jettySize=auto;html=1;exitX=1;exitY=0.5;exitDx=0;exitDy=0;exitPerimeter=0;entryX=0;entryY=0.5;entryDx=0;entryDy=0;fontSize=12;startSize=8;endSize=8;" edge="1" parent="1" source="R2zl7MKmkN0muqvOy9qm-316" target="R2zl7MKmkN0muqvOy9qm-386">
          <mxGeometry relative="1" as="geometry">
            <Array as="points">
              <mxPoint x="415" y="862" />
              <mxPoint x="1170" y="862" />
              <mxPoint x="1170" y="330" />
              <mxPoint x="975" y="330" />
            </Array>
          </mxGeometry>
        </mxCell>
        <mxCell id="R2zl7MKmkN0muqvOy9qm-467" style="edgeStyle=orthogonalEdgeStyle;rounded=1;orthogonalLoop=1;jettySize=auto;html=1;exitX=1;exitY=0.5;exitDx=0;exitDy=0;exitPerimeter=0;entryX=0;entryY=0.5;entryDx=0;entryDy=0;fontSize=12;startSize=8;endSize=8;" edge="1" parent="1" source="R2zl7MKmkN0muqvOy9qm-318" target="R2zl7MKmkN0muqvOy9qm-386">
          <mxGeometry relative="1" as="geometry">
            <Array as="points">
              <mxPoint x="485" y="862" />
              <mxPoint x="1170" y="862" />
              <mxPoint x="1170" y="330" />
              <mxPoint x="975" y="330" />
            </Array>
          </mxGeometry>
        </mxCell>
        <mxCell id="R2zl7MKmkN0muqvOy9qm-468" style="edgeStyle=orthogonalEdgeStyle;rounded=1;orthogonalLoop=1;jettySize=auto;html=1;exitX=1;exitY=0.5;exitDx=0;exitDy=0;exitPerimeter=0;entryX=0;entryY=0.5;entryDx=0;entryDy=0;fontSize=12;startSize=8;endSize=8;" edge="1" parent="1" source="R2zl7MKmkN0muqvOy9qm-320" target="R2zl7MKmkN0muqvOy9qm-386">
          <mxGeometry relative="1" as="geometry">
            <Array as="points">
              <mxPoint x="555" y="862" />
              <mxPoint x="1170" y="862" />
              <mxPoint x="1170" y="330" />
              <mxPoint x="975" y="330" />
            </Array>
          </mxGeometry>
        </mxCell>
        <mxCell id="R2zl7MKmkN0muqvOy9qm-469" style="edgeStyle=orthogonalEdgeStyle;rounded=1;orthogonalLoop=1;jettySize=auto;html=1;exitX=1;exitY=0.5;exitDx=0;exitDy=0;exitPerimeter=0;entryX=0;entryY=0.5;entryDx=0;entryDy=0;fontSize=12;startSize=8;endSize=8;" edge="1" parent="1" source="R2zl7MKmkN0muqvOy9qm-322" target="R2zl7MKmkN0muqvOy9qm-386">
          <mxGeometry relative="1" as="geometry">
            <Array as="points">
              <mxPoint x="625" y="862" />
              <mxPoint x="1170" y="862" />
              <mxPoint x="1170" y="330" />
              <mxPoint x="975" y="330" />
            </Array>
          </mxGeometry>
        </mxCell>
        <mxCell id="R2zl7MKmkN0muqvOy9qm-471" style="edgeStyle=orthogonalEdgeStyle;rounded=1;orthogonalLoop=1;jettySize=auto;html=1;exitX=0;exitY=0.5;exitDx=0;exitDy=0;entryX=0.832;entryY=1.032;entryDx=0;entryDy=0;entryPerimeter=0;fontSize=12;startSize=8;endSize=3;jumpStyle=line;endArrow=circle;endFill=0;" edge="1" parent="1" source="R2zl7MKmkN0muqvOy9qm-326" target="R2zl7MKmkN0muqvOy9qm-320">
          <mxGeometry relative="1" as="geometry">
            <Array as="points">
              <mxPoint x="443" y="880" />
              <mxPoint x="520" y="880" />
              <mxPoint x="520" y="834" />
            </Array>
          </mxGeometry>
        </mxCell>
        <mxCell id="R2zl7MKmkN0muqvOy9qm-472" style="edgeStyle=orthogonalEdgeStyle;rounded=1;orthogonalLoop=1;jettySize=auto;html=1;entryX=1;entryY=0.5;entryDx=0;entryDy=0;fontSize=12;startSize=8;endSize=3;exitX=1;exitY=0.5;exitDx=0;exitDy=0;endArrow=circle;endFill=0;" edge="1" parent="1" source="R2zl7MKmkN0muqvOy9qm-405" target="R2zl7MKmkN0muqvOy9qm-391">
          <mxGeometry relative="1" as="geometry" />
        </mxCell>
        <mxCell id="R2zl7MKmkN0muqvOy9qm-473" style="edgeStyle=orthogonalEdgeStyle;rounded=1;orthogonalLoop=1;jettySize=auto;html=1;entryX=1;entryY=0.5;entryDx=0;entryDy=0;fontSize=12;startSize=8;endSize=8;startArrow=classic;startFill=1;exitX=0.784;exitY=0.915;exitDx=0;exitDy=0;exitPerimeter=0;" edge="1" parent="1" source="R2zl7MKmkN0muqvOy9qm-404" target="R2zl7MKmkN0muqvOy9qm-380">
          <mxGeometry relative="1" as="geometry">
            <mxPoint x="1092" y="459" as="sourcePoint" />
            <Array as="points">
              <mxPoint x="1040" y="453" />
              <mxPoint x="1040" y="496" />
            </Array>
          </mxGeometry>
        </mxCell>
        <mxCell id="R2zl7MKmkN0muqvOy9qm-474" style="edgeStyle=none;curved=1;rounded=0;orthogonalLoop=1;jettySize=auto;html=1;entryX=1;entryY=0.5;entryDx=0;entryDy=0;fontSize=12;startSize=8;endSize=8;" edge="1" parent="1" source="R2zl7MKmkN0muqvOy9qm-404" target="R2zl7MKmkN0muqvOy9qm-376">
          <mxGeometry relative="1" as="geometry" />
        </mxCell>
        <mxCell id="R2zl7MKmkN0muqvOy9qm-475" style="edgeStyle=orthogonalEdgeStyle;rounded=1;orthogonalLoop=1;jettySize=auto;html=1;fontSize=12;startSize=8;endSize=8;startArrow=classic;startFill=1;entryX=0.831;entryY=0.135;entryDx=0;entryDy=0;entryPerimeter=0;exitX=0;exitY=0.5;exitDx=0;exitDy=0;" edge="1" parent="1" source="R2zl7MKmkN0muqvOy9qm-380" target="R2zl7MKmkN0muqvOy9qm-412">
          <mxGeometry relative="1" as="geometry">
            <mxPoint x="894.9065420560748" y="457.177570093458" as="targetPoint" />
            <mxPoint x="950" y="497" as="sourcePoint" />
          </mxGeometry>
        </mxCell>
        <mxCell id="R2zl7MKmkN0muqvOy9qm-476" style="edgeStyle=orthogonalEdgeStyle;rounded=1;orthogonalLoop=1;jettySize=auto;html=1;exitX=0.835;exitY=0.132;exitDx=0;exitDy=0;exitPerimeter=0;fontSize=12;startSize=8;endSize=8;startArrow=classic;startFill=1;" edge="1" parent="1" source="R2zl7MKmkN0muqvOy9qm-412">
          <mxGeometry relative="1" as="geometry">
            <mxPoint x="895" y="457" as="sourcePoint" />
            <mxPoint x="820" y="496" as="targetPoint" />
            <Array as="points">
              <mxPoint x="899" y="496" />
            </Array>
          </mxGeometry>
        </mxCell>
        <mxCell id="R2zl7MKmkN0muqvOy9qm-478" style="edgeStyle=orthogonalEdgeStyle;rounded=1;orthogonalLoop=1;jettySize=auto;html=1;fontSize=12;startSize=8;endSize=3;endArrow=circle;endFill=0;entryX=1;entryY=0.5;entryDx=0;entryDy=0;entryPerimeter=0;jumpStyle=line;" edge="1" parent="1" target="R2zl7MKmkN0muqvOy9qm-426">
          <mxGeometry relative="1" as="geometry">
            <mxPoint x="879" y="456" as="sourcePoint" />
            <mxPoint x="840" y="550" as="targetPoint" />
            <Array as="points">
              <mxPoint x="879" y="540" />
              <mxPoint x="819" y="540" />
            </Array>
          </mxGeometry>
        </mxCell>
        <mxCell id="R2zl7MKmkN0muqvOy9qm-479" style="edgeStyle=orthogonalEdgeStyle;rounded=1;orthogonalLoop=1;jettySize=auto;html=1;fontSize=12;startSize=8;endSize=3;endArrow=circle;endFill=0;jumpStyle=line;entryX=0.25;entryY=1;entryDx=0;entryDy=0;" edge="1" parent="1" target="R2zl7MKmkN0muqvOy9qm-376">
          <mxGeometry relative="1" as="geometry">
            <mxPoint x="879" y="456" as="sourcePoint" />
            <mxPoint x="940" y="479.93243243243245" as="targetPoint" />
            <Array as="points">
              <mxPoint x="879" y="480" />
              <mxPoint x="962" y="480" />
            </Array>
          </mxGeometry>
        </mxCell>
        <mxCell id="R2zl7MKmkN0muqvOy9qm-410" value="" style="group;fontSize=16;" vertex="1" connectable="0" parent="1">
          <mxGeometry x="869" y="412.96" width="55" height="45" as="geometry" />
        </mxCell>
        <mxCell id="R2zl7MKmkN0muqvOy9qm-411" value="&lt;b&gt;eastSegment&lt;/b&gt;" style="text;html=1;strokeColor=none;fillColor=none;align=center;verticalAlign=middle;whiteSpace=wrap;rounded=0;fontSize=9;container=0;" vertex="1" parent="R2zl7MKmkN0muqvOy9qm-410">
          <mxGeometry x="45" width="20" height="10" as="geometry" />
        </mxCell>
        <object label="" markers="●" placeholders="1" id="R2zl7MKmkN0muqvOy9qm-412">
          <mxCell style="ellipse;whiteSpace=wrap;html=1;aspect=fixed;fontSize=16;direction=south;points=[[0,0.5,0,0,0],[0.5,0,0,0,0],[0.5,1,0,0,0],[1,0.5,0,0,0]];fillColor=#dae8fc;strokeColor=#6c8ebf;" vertex="1" parent="R2zl7MKmkN0muqvOy9qm-410">
            <mxGeometry y="10" width="35" height="35" as="geometry" />
          </mxCell>
        </object>
      </root>
    </mxGraphModel>
  </diagram>
</mxfile>
